<mxfile host="65bd71144e">
    <diagram name="vWAN" id="NxYmKDOF7gZatoSxxhLE">
        <mxGraphModel dx="12726" dy="5752" grid="1" gridSize="15" guides="1" tooltips="1" connect="1" arrows="1" fold="1" page="1" pageScale="1" pageWidth="850" pageHeight="1100" math="0" shadow="0">
            <root>
                <mxCell id="0Zcb1wvKVoteUL0pYanl-0"/>
                <mxCell id="0Zcb1wvKVoteUL0pYanl-1" value="Background" style="" parent="0Zcb1wvKVoteUL0pYanl-0"/>
                <UserObject label="" tags="" id="mq8fEUFOC8pdxFk_0g2d-0">
                    <mxCell style="edgeStyle=none;orthogonalLoop=1;jettySize=auto;html=1;rounded=0;shadow=0;sketch=0;strokeColor=#3399FF;strokeWidth=5;fontFamily=Comic Sans MS;fontSize=25;fontColor=#000000;startArrow=none;startFill=0;endArrow=none;endFill=0;jumpStyle=none;jumpSize=2;" parent="0Zcb1wvKVoteUL0pYanl-1" edge="1">
                        <mxGeometry width="80" relative="1" as="geometry">
                            <mxPoint x="-360" y="465" as="sourcePoint"/>
                            <mxPoint x="1250" y="465" as="targetPoint"/>
                            <Array as="points"/>
                        </mxGeometry>
                    </mxCell>
                </UserObject>
                <UserObject label="Global Reach" tags="" id="mq8fEUFOC8pdxFk_0g2d-1">
                    <mxCell style="edgeLabel;html=1;align=center;verticalAlign=middle;resizable=0;points=[];fontSize=31;fontFamily=Comic Sans MS;fontColor=#000000;fontStyle=1" parent="mq8fEUFOC8pdxFk_0g2d-0" vertex="1" connectable="0">
                        <mxGeometry x="0.7299" y="-3" relative="1" as="geometry">
                            <mxPoint x="1" as="offset"/>
                        </mxGeometry>
                    </mxCell>
                </UserObject>
                <mxCell id="mq8fEUFOC8pdxFk_0g2d-7" style="edgeStyle=none;curved=1;sketch=0;jumpStyle=none;jumpSize=2;orthogonalLoop=1;jettySize=auto;html=1;exitX=0.75;exitY=0;exitDx=0;exitDy=0;entryX=0.126;entryY=0.002;entryDx=0;entryDy=0;entryPerimeter=0;shadow=0;dashed=1;strokeColor=#00CC00;strokeWidth=6;fontFamily=Comic Sans MS;fontSize=20;fontColor=#000000;startArrow=classic;startFill=1;endArrow=classic;endFill=1;targetPerimeterSpacing=1;" parent="0Zcb1wvKVoteUL0pYanl-1" edge="1">
                    <mxGeometry relative="1" as="geometry">
                        <Array as="points">
                            <mxPoint x="570" y="-15"/>
                        </Array>
                        <mxPoint x="453.74999999999955" y="630" as="sourcePoint"/>
                        <mxPoint x="739.1400000000003" y="630.7200000000003" as="targetPoint"/>
                    </mxGeometry>
                </mxCell>
                <mxCell id="0Zcb1wvKVoteUL0pYanl-37" value="Base:vWAN-hub-spoke" style="" parent="0Zcb1wvKVoteUL0pYanl-0"/>
                <mxCell id="0Zcb1wvKVoteUL0pYanl-40" value="" style="rounded=0;whiteSpace=wrap;html=1;glass=0;labelBackgroundColor=#FFFF66;labelBorderColor=#FF0000;comic=0;fillStyle=auto;sketchStyle=rough;strokeColor=#3399FF;strokeWidth=5;fontFamily=Comic Sans MS;fontSize=22;fontColor=#000000;fillColor=#CCE5FF;gradientColor=none;dashGap=0;zigzagOffset=0;dashOffset=0;fixDash=0;sketch=1;curveFitting=1;jiggle=1;disableMultiStroke=1;disableMultiStrokeFill=1;hachureGap=-1;fillWeight=-1;snapToPoint=1;" parent="0Zcb1wvKVoteUL0pYanl-37" vertex="1">
                    <mxGeometry x="60" y="-90" width="720" height="405" as="geometry"/>
                </mxCell>
                <mxCell id="0Zcb1wvKVoteUL0pYanl-38" value="" style="rounded=0;whiteSpace=wrap;html=1;glass=0;labelBackgroundColor=#FFFF66;labelBorderColor=#FF0000;comic=0;sketch=1;jiggle=1;fillStyle=auto;curveFitting=1;sketchStyle=rough;strokeColor=#3399FF;strokeWidth=5;fontFamily=Comic Sans MS;fontSize=22;fontColor=#000000;fillColor=#CCE5FF;gradientColor=none;disableMultiStroke=1;disableMultiStrokeFill=1;hachureGap=-1;fillWeight=-1;" parent="0Zcb1wvKVoteUL0pYanl-37" vertex="1">
                    <mxGeometry x="480" y="-480" width="345" height="195" as="geometry"/>
                </mxCell>
                <mxCell id="0Zcb1wvKVoteUL0pYanl-39" value="" style="rounded=0;whiteSpace=wrap;html=1;glass=0;labelBackgroundColor=#FFFF66;labelBorderColor=#FF0000;comic=0;sketch=1;jiggle=1;fillStyle=auto;curveFitting=1;sketchStyle=rough;strokeColor=#3399FF;strokeWidth=5;fontFamily=Comic Sans MS;fontSize=22;fontColor=#000000;fillColor=#CCE5FF;gradientColor=none;disableMultiStroke=1;disableMultiStrokeFill=1;hachureGap=-1;fillWeight=-1;" parent="0Zcb1wvKVoteUL0pYanl-37" vertex="1">
                    <mxGeometry x="30" y="-480" width="345" height="195" as="geometry"/>
                </mxCell>
                <mxCell id="0Zcb1wvKVoteUL0pYanl-41" style="edgeStyle=none;curved=1;sketch=0;jumpStyle=none;jumpSize=2;orthogonalLoop=1;jettySize=auto;html=1;exitX=0.5;exitY=1;exitDx=0;exitDy=0;shadow=0;strokeColor=#7EA6E0;strokeWidth=4;fontFamily=Comic Sans MS;fontSize=22;fontColor=#000000;startArrow=diamond;startFill=0;endArrow=diamond;endFill=0;targetPerimeterSpacing=1;entryX=0.25;entryY=0;entryDx=0;entryDy=0;" parent="0Zcb1wvKVoteUL0pYanl-37" source="0Zcb1wvKVoteUL0pYanl-39" target="0Zcb1wvKVoteUL0pYanl-40" edge="1">
                    <mxGeometry relative="1" as="geometry">
                        <mxPoint x="285" y="-105" as="targetPoint"/>
                    </mxGeometry>
                </mxCell>
                <mxCell id="0Zcb1wvKVoteUL0pYanl-42" value="&lt;font style=&quot;font-size: 25px;&quot;&gt;Spoke1&lt;br&gt;10.11.0.0/16&lt;/font&gt;" style="text;html=1;align=center;verticalAlign=middle;resizable=0;points=[];autosize=1;strokeColor=none;fillColor=none;fontSize=22;fontFamily=Comic Sans MS;fontColor=#000000;fontStyle=1" parent="0Zcb1wvKVoteUL0pYanl-37" vertex="1">
                    <mxGeometry x="135.00000000000003" y="-465" width="195" height="75" as="geometry"/>
                </mxCell>
                <mxCell id="0Zcb1wvKVoteUL0pYanl-43" style="edgeStyle=none;curved=1;sketch=0;jumpStyle=none;jumpSize=2;orthogonalLoop=1;jettySize=auto;html=1;exitX=0.5;exitY=1;exitDx=0;exitDy=0;entryX=0.75;entryY=0;entryDx=0;entryDy=0;shadow=0;strokeColor=#7EA6E0;strokeWidth=4;fontFamily=Comic Sans MS;fontSize=22;fontColor=#000000;startArrow=diamond;startFill=0;endArrow=diamond;endFill=0;targetPerimeterSpacing=1;" parent="0Zcb1wvKVoteUL0pYanl-37" source="0Zcb1wvKVoteUL0pYanl-38" target="0Zcb1wvKVoteUL0pYanl-40" edge="1">
                    <mxGeometry relative="1" as="geometry">
                        <Array as="points">
                            <mxPoint x="615" y="-180"/>
                        </Array>
                    </mxGeometry>
                </mxCell>
                <mxCell id="0Zcb1wvKVoteUL0pYanl-44" value="&lt;font style=&quot;font-size: 25px;&quot;&gt;&lt;b&gt;Spoke2&lt;br&gt;10.12.0.0/16&lt;/b&gt;&lt;/font&gt;" style="text;html=1;align=center;verticalAlign=middle;resizable=0;points=[];autosize=1;strokeColor=none;fillColor=none;fontSize=22;fontFamily=Comic Sans MS;fontColor=#000000;" parent="0Zcb1wvKVoteUL0pYanl-37" vertex="1">
                    <mxGeometry x="556" y="-480" width="195" height="75" as="geometry"/>
                </mxCell>
                <mxCell id="0Zcb1wvKVoteUL0pYanl-45" value="&lt;font style=&quot;font-size: 25px;&quot;&gt;&lt;b&gt;vWAN HUB&lt;br&gt;192.168.101.0/24&lt;/b&gt;&lt;/font&gt;" style="text;html=1;align=center;verticalAlign=middle;resizable=0;points=[];autosize=1;strokeColor=none;fillColor=none;fontSize=22;fontFamily=Comic Sans MS;fontColor=#000000;" parent="0Zcb1wvKVoteUL0pYanl-37" vertex="1">
                    <mxGeometry x="278" y="-75" width="255" height="75" as="geometry"/>
                </mxCell>
                <mxCell id="0Zcb1wvKVoteUL0pYanl-46" value="" style="aspect=fixed;html=1;points=[];align=center;image;fontSize=12;image=img/lib/azure2/networking/Virtual_WANs.svg;rounded=0;glass=0;labelBackgroundColor=#FFFF66;labelBorderColor=#FF0000;comic=0;sketch=1;jiggle=2;fillStyle=auto;curveFitting=1;sketchStyle=rough;strokeColor=#3399FF;strokeWidth=1;fontFamily=Comic Sans MS;fontColor=#000000;fillColor=#E6E6E6;gradientColor=none;" parent="0Zcb1wvKVoteUL0pYanl-37" vertex="1">
                    <mxGeometry x="375" y="-5" width="76.17" height="75" as="geometry"/>
                </mxCell>
                <mxCell id="0Zcb1wvKVoteUL0pYanl-47" value="" style="aspect=fixed;html=1;points=[];align=center;image;fontSize=12;image=img/lib/azure2/networking/Virtual_Networks.svg;rounded=0;glass=0;labelBackgroundColor=#FFFF66;labelBorderColor=#FF0000;comic=0;sketch=1;jiggle=2;fillStyle=auto;curveFitting=1;sketchStyle=rough;strokeColor=#3399FF;strokeWidth=1;fontFamily=Comic Sans MS;fontColor=#000000;fillColor=#E6E6E6;gradientColor=none;" parent="0Zcb1wvKVoteUL0pYanl-37" vertex="1">
                    <mxGeometry x="75" y="-465" width="67" height="40" as="geometry"/>
                </mxCell>
                <mxCell id="0Zcb1wvKVoteUL0pYanl-48" value="" style="aspect=fixed;html=1;points=[];align=center;image;fontSize=12;image=img/lib/azure2/networking/Virtual_Networks.svg;rounded=0;glass=0;labelBackgroundColor=#FFFF66;labelBorderColor=#FF0000;comic=0;sketch=1;jiggle=2;fillStyle=auto;curveFitting=1;sketchStyle=rough;strokeColor=#3399FF;strokeWidth=1;fontFamily=Comic Sans MS;fontColor=#000000;fillColor=#E6E6E6;gradientColor=none;" parent="0Zcb1wvKVoteUL0pYanl-37" vertex="1">
                    <mxGeometry x="495" y="-462.5" width="67" height="40" as="geometry"/>
                </mxCell>
                <mxCell id="0Zcb1wvKVoteUL0pYanl-49" value="" style="aspect=fixed;html=1;points=[];align=center;image;fontSize=12;image=img/lib/azure2/networking/Virtual_Network_Gateways.svg;rounded=0;glass=0;labelBackgroundColor=#FFFF66;labelBorderColor=#FF0000;comic=0;sketch=1;jiggle=2;fillStyle=auto;curveFitting=1;sketchStyle=rough;strokeColor=#3399FF;strokeWidth=1;fontFamily=Comic Sans MS;fontColor=#000000;fillColor=#E6E6E6;gradientColor=none;" parent="0Zcb1wvKVoteUL0pYanl-37" vertex="1">
                    <mxGeometry x="150" y="225" width="52" height="69" as="geometry"/>
                </mxCell>
                <mxCell id="0Zcb1wvKVoteUL0pYanl-50" value="" style="aspect=fixed;html=1;points=[];align=center;image;fontSize=12;image=img/lib/azure2/networking/Virtual_Network_Gateways.svg;rounded=0;glass=0;labelBackgroundColor=#FFFF66;labelBorderColor=#FF0000;comic=0;sketch=1;jiggle=2;fillStyle=auto;curveFitting=1;sketchStyle=rough;strokeColor=#3399FF;strokeWidth=1;fontFamily=Comic Sans MS;fontColor=#000000;fillColor=#E6E6E6;gradientColor=none;" parent="0Zcb1wvKVoteUL0pYanl-37" vertex="1">
                    <mxGeometry x="405.5" y="210" width="52" height="69" as="geometry"/>
                </mxCell>
                <mxCell id="0Zcb1wvKVoteUL0pYanl-51" value="" style="aspect=fixed;html=1;points=[];align=center;image;fontSize=12;image=img/lib/azure2/networking/Virtual_Network_Gateways.svg;rounded=0;glass=0;labelBackgroundColor=#FFFF66;labelBorderColor=#FF0000;comic=0;sketch=1;jiggle=2;fillStyle=auto;curveFitting=1;sketchStyle=rough;strokeColor=#3399FF;strokeWidth=1;fontFamily=Comic Sans MS;fontColor=#000000;fillColor=#E6E6E6;gradientColor=none;" parent="0Zcb1wvKVoteUL0pYanl-37" vertex="1">
                    <mxGeometry x="675" y="210" width="52" height="69" as="geometry"/>
                </mxCell>
                <mxCell id="0Zcb1wvKVoteUL0pYanl-52" value="" style="aspect=fixed;html=1;points=[];align=center;image;fontSize=12;image=img/lib/azure2/compute/Virtual_Machine.svg;rounded=0;glass=0;labelBackgroundColor=#FFFF66;labelBorderColor=#FF0000;comic=0;sketch=1;jiggle=2;fillStyle=auto;curveFitting=1;sketchStyle=rough;strokeColor=#3399FF;strokeWidth=1;fontFamily=Comic Sans MS;fontColor=#000000;fillColor=#E6E6E6;gradientColor=none;" parent="0Zcb1wvKVoteUL0pYanl-37" vertex="1">
                    <mxGeometry x="75" y="-390" width="69" height="64" as="geometry"/>
                </mxCell>
                <mxCell id="0Zcb1wvKVoteUL0pYanl-53" value="" style="aspect=fixed;html=1;points=[];align=center;image;fontSize=12;image=img/lib/azure2/compute/Container_Services_Deprecated.svg;rounded=0;glass=0;labelBackgroundColor=#FFFF66;labelBorderColor=#FF0000;comic=0;sketch=1;jiggle=2;fillStyle=auto;curveFitting=1;sketchStyle=rough;strokeColor=#3399FF;strokeWidth=1;fontFamily=Comic Sans MS;fontColor=#000000;fillColor=#E6E6E6;gradientColor=none;" parent="0Zcb1wvKVoteUL0pYanl-37" vertex="1">
                    <mxGeometry x="540" y="-390" width="68" height="60" as="geometry"/>
                </mxCell>
                <mxCell id="0Zcb1wvKVoteUL0pYanl-54" value="&lt;font style=&quot;font-size: 25px;&quot;&gt;&lt;b&gt;S2S VPN&lt;br&gt;GW&lt;/b&gt;&lt;/font&gt;" style="text;html=1;align=center;verticalAlign=middle;resizable=0;points=[];autosize=1;strokeColor=none;fillColor=none;fontSize=20;fontFamily=Comic Sans MS;fontColor=#000000;" parent="0Zcb1wvKVoteUL0pYanl-37" vertex="1">
                    <mxGeometry x="113" y="143" width="135" height="75" as="geometry"/>
                </mxCell>
                <mxCell id="0Zcb1wvKVoteUL0pYanl-55" value="&lt;font style=&quot;font-size: 25px;&quot;&gt;&lt;b&gt;ER VPN&lt;br&gt;GW&lt;/b&gt;&lt;/font&gt;" style="text;html=1;align=center;verticalAlign=middle;resizable=0;points=[];autosize=1;strokeColor=none;fillColor=none;fontSize=20;fontFamily=Comic Sans MS;fontColor=#000000;" parent="0Zcb1wvKVoteUL0pYanl-37" vertex="1">
                    <mxGeometry x="638" y="143" width="120" height="75" as="geometry"/>
                </mxCell>
                <mxCell id="0Zcb1wvKVoteUL0pYanl-56" value="&lt;font style=&quot;font-size: 25px;&quot;&gt;&lt;b&gt;P2S VPN&lt;br&gt;GW&lt;/b&gt;&lt;/font&gt;" style="text;html=1;align=center;verticalAlign=middle;resizable=0;points=[];autosize=1;strokeColor=none;fillColor=none;fontSize=20;fontFamily=Comic Sans MS;fontColor=#000000;" parent="0Zcb1wvKVoteUL0pYanl-37" vertex="1">
                    <mxGeometry x="358" y="143" width="135" height="75" as="geometry"/>
                </mxCell>
                <mxCell id="AaTsj4VFo2ENV-WCoRB4-0" value="&lt;font style=&quot;font-size: 30px;&quot;&gt;&lt;b&gt;Internet&lt;/b&gt;&lt;/font&gt;" style="ellipse;shape=cloud;whiteSpace=wrap;html=1;rounded=0;glass=0;labelBackgroundColor=default;sketch=0;fillStyle=auto;strokeColor=#000000;strokeWidth=4;fontFamily=Comic Sans MS;fontSize=25;fontColor=#000000;fillColor=none;gradientColor=none;opacity=70;" parent="0Zcb1wvKVoteUL0pYanl-37" vertex="1">
                    <mxGeometry x="870" y="-660" width="735" height="165" as="geometry"/>
                </mxCell>
                <UserObject label="" tags="" id="1">
                    <mxCell style="edgeStyle=none;orthogonalLoop=1;jettySize=auto;html=1;rounded=0;shadow=0;strokeColor=#3399FF;strokeWidth=5;fontFamily=Comic Sans MS;fontSize=25;fontColor=#000000;startArrow=baseDash;startFill=0;endArrow=baseDash;endFill=0;jumpStyle=none;jumpSize=2;sketchStyle=rough;disableMultiStroke=1;" parent="0Zcb1wvKVoteUL0pYanl-37" edge="1">
                        <mxGeometry width="80" relative="1" as="geometry">
                            <mxPoint x="-508" y="465" as="sourcePoint"/>
                            <mxPoint x="3915" y="465" as="targetPoint"/>
                            <Array as="points">
                                <mxPoint x="441" y="465"/>
                            </Array>
                        </mxGeometry>
                    </mxCell>
                </UserObject>
                <UserObject label="Global Reach" tags="" id="2">
                    <mxCell style="edgeLabel;html=1;align=center;verticalAlign=middle;resizable=0;points=[];fontSize=31;fontFamily=Comic Sans MS;fontColor=#3399FF;fontStyle=1;sketch=1;curveFitting=1;jiggle=2;" parent="1" vertex="1" connectable="0">
                        <mxGeometry x="0.7299" y="-3" relative="1" as="geometry">
                            <mxPoint x="-1638" y="-3" as="offset"/>
                        </mxGeometry>
                    </mxCell>
                </UserObject>
                <mxCell id="20" style="edgeStyle=none;curved=1;sketch=1;hachureGap=4;jiggle=2;curveFitting=1;html=1;exitX=0;exitY=0.5;exitDx=0;exitDy=0;entryX=1;entryY=0.5;entryDx=0;entryDy=0;strokeColor=#3399FF;fontFamily=Architects Daughter;fontSource=https%3A%2F%2Ffonts.googleapis.com%2Fcss%3Ffamily%3DArchitects%2BDaughter;fontSize=30;fontColor=#FF0000;startArrow=none;startFill=0;endArrow=none;endFill=0;strokeWidth=3;" parent="0Zcb1wvKVoteUL0pYanl-37" source="0Zcb1wvKVoteUL0pYanl-40" target="0Zcb1wvKVoteUL0pYanl-40" edge="1">
                    <mxGeometry relative="1" as="geometry"/>
                </mxCell>
                <mxCell id="0Zcb1wvKVoteUL0pYanl-28" value="Base: S2S-Branches" parent="0Zcb1wvKVoteUL0pYanl-0"/>
                <mxCell id="0Zcb1wvKVoteUL0pYanl-29" style="edgeStyle=none;curved=1;sketch=0;jumpStyle=none;jumpSize=2;orthogonalLoop=1;jettySize=auto;html=1;exitX=0.5;exitY=0;exitDx=0;exitDy=0;shadow=0;strokeColor=#7EA6E0;strokeWidth=4;fontFamily=Comic Sans MS;fontSize=22;fontColor=#000000;startArrow=diamond;startFill=0;endArrow=diamond;endFill=0;targetPerimeterSpacing=1;" parent="0Zcb1wvKVoteUL0pYanl-28" source="0Zcb1wvKVoteUL0pYanl-30" target="0Zcb1wvKVoteUL0pYanl-49" edge="1">
                    <mxGeometry relative="1" as="geometry">
                        <mxPoint x="150" y="285" as="targetPoint"/>
                    </mxGeometry>
                </mxCell>
                <mxCell id="0Zcb1wvKVoteUL0pYanl-30" value="" style="rounded=0;whiteSpace=wrap;html=1;glass=0;labelBackgroundColor=#FFFF66;labelBorderColor=#FF0000;comic=0;sketch=1;jiggle=2;fillStyle=auto;curveFitting=1;sketchStyle=rough;strokeColor=#FF8000;strokeWidth=5;fontFamily=Comic Sans MS;fontSize=22;fillColor=#FFE6CC;disableMultiStrokeFill=1;disableMultiStroke=1;hachureGap=-1;fillWeight=-1;" parent="0Zcb1wvKVoteUL0pYanl-28" vertex="1">
                    <mxGeometry x="-600" y="615" width="285" height="360" as="geometry"/>
                </mxCell>
                <mxCell id="0Zcb1wvKVoteUL0pYanl-31" style="edgeStyle=none;curved=1;sketch=0;jumpStyle=none;jumpSize=2;orthogonalLoop=1;jettySize=auto;html=1;exitX=0.5;exitY=0;exitDx=0;exitDy=0;shadow=0;strokeColor=#7EA6E0;strokeWidth=4;fontFamily=Comic Sans MS;fontSize=22;fontColor=#000000;startArrow=diamond;startFill=0;endArrow=diamond;endFill=0;targetPerimeterSpacing=1;entryX=0.554;entryY=0.954;entryDx=0;entryDy=0;entryPerimeter=0;" parent="0Zcb1wvKVoteUL0pYanl-28" source="0Zcb1wvKVoteUL0pYanl-32" target="0Zcb1wvKVoteUL0pYanl-49" edge="1">
                    <mxGeometry relative="1" as="geometry">
                        <mxPoint x="180" y="300" as="targetPoint"/>
                    </mxGeometry>
                </mxCell>
                <mxCell id="0Zcb1wvKVoteUL0pYanl-32" value="" style="rounded=0;whiteSpace=wrap;html=1;glass=0;labelBackgroundColor=#FFFF66;labelBorderColor=#FF0000;comic=0;sketch=1;jiggle=1;fillStyle=auto;curveFitting=1;sketchStyle=rough;strokeColor=#FF8000;strokeWidth=5;fontFamily=Comic Sans MS;fontSize=22;fillColor=#FFE6CC;disableMultiStrokeFill=1;disableMultiStroke=1;hachureGap=-1;fillWeight=-1;hachureAngle=-41;" parent="0Zcb1wvKVoteUL0pYanl-28" vertex="1">
                    <mxGeometry x="-180" y="615" width="285" height="360" as="geometry"/>
                </mxCell>
                <mxCell id="0Zcb1wvKVoteUL0pYanl-33" value="&lt;font style=&quot;font-size: 25px;&quot;&gt;&lt;b&gt;Branch1&lt;br&gt;10.8.0.0/16&lt;br&gt;&lt;br&gt;VM: 10.8.1.4&lt;/b&gt;&lt;/font&gt;" style="text;html=1;align=center;verticalAlign=middle;resizable=0;points=[];autosize=1;strokeColor=none;fillColor=none;fontSize=22;fontFamily=Comic Sans MS;fontColor=#000000;" parent="0Zcb1wvKVoteUL0pYanl-28" vertex="1">
                    <mxGeometry x="-569" y="623" width="195" height="135" as="geometry"/>
                </mxCell>
                <mxCell id="0Zcb1wvKVoteUL0pYanl-34" value="&lt;font style=&quot;font-size: 25px;&quot;&gt;&lt;b&gt;Branch2&lt;br&gt;10.10.0.0/16&lt;br&gt;&lt;br&gt;VM: 10.10.2.5&lt;/b&gt;&lt;/font&gt;" style="text;html=1;align=center;verticalAlign=middle;resizable=0;points=[];autosize=1;strokeColor=none;fillColor=none;fontSize=22;fontFamily=Comic Sans MS;fontColor=#000000;" parent="0Zcb1wvKVoteUL0pYanl-28" vertex="1">
                    <mxGeometry x="-158" y="608" width="210" height="135" as="geometry"/>
                </mxCell>
                <mxCell id="0Zcb1wvKVoteUL0pYanl-35" value="" style="aspect=fixed;html=1;points=[];align=center;image;fontSize=12;image=img/lib/azure2/compute/Virtual_Machine.svg;rounded=0;glass=0;labelBackgroundColor=#FFFF66;labelBorderColor=#FF0000;comic=0;sketch=1;jiggle=2;fillStyle=auto;curveFitting=1;sketchStyle=rough;strokeColor=#3399FF;strokeWidth=1;fontFamily=Comic Sans MS;fontColor=#000000;fillColor=#E6E6E6;gradientColor=none;" parent="0Zcb1wvKVoteUL0pYanl-28" vertex="1">
                    <mxGeometry x="-507" y="870" width="69" height="64" as="geometry"/>
                </mxCell>
                <mxCell id="0Zcb1wvKVoteUL0pYanl-36" value="" style="aspect=fixed;html=1;points=[];align=center;image;fontSize=12;image=img/lib/azure2/compute/Virtual_Machine.svg;rounded=0;glass=0;labelBackgroundColor=#FFFF66;labelBorderColor=#FF0000;comic=0;sketch=1;jiggle=2;fillStyle=auto;curveFitting=1;sketchStyle=rough;strokeColor=#3399FF;strokeWidth=1;fontFamily=Comic Sans MS;fontColor=#000000;fillColor=#E6E6E6;gradientColor=none;" parent="0Zcb1wvKVoteUL0pYanl-28" vertex="1">
                    <mxGeometry x="-72" y="885" width="69" height="64" as="geometry"/>
                </mxCell>
                <mxCell id="0Zcb1wvKVoteUL0pYanl-23" value="Base: P2S-branches" parent="0Zcb1wvKVoteUL0pYanl-0"/>
                <mxCell id="0Zcb1wvKVoteUL0pYanl-24" style="edgeStyle=none;curved=1;sketch=0;jumpStyle=none;jumpSize=2;orthogonalLoop=1;jettySize=auto;html=1;exitX=0.5;exitY=0;exitDx=0;exitDy=0;shadow=0;strokeColor=#7EA6E0;strokeWidth=4;fontFamily=Comic Sans MS;fontSize=22;fontColor=#000000;startArrow=diamond;startFill=0;endArrow=diamond;endFill=0;targetPerimeterSpacing=1;" parent="0Zcb1wvKVoteUL0pYanl-23" source="0Zcb1wvKVoteUL0pYanl-25" target="0Zcb1wvKVoteUL0pYanl-50" edge="1">
                    <mxGeometry relative="1" as="geometry"/>
                </mxCell>
                <mxCell id="0Zcb1wvKVoteUL0pYanl-25" value="" style="rounded=0;whiteSpace=wrap;html=1;glass=0;labelBackgroundColor=#FFFF66;labelBorderColor=#FF0000;comic=0;sketch=1;jiggle=2;fillStyle=auto;curveFitting=1;sketchStyle=rough;strokeColor=#FF00FF;strokeWidth=5;fontFamily=Comic Sans MS;fontSize=22;fillColor=#FFCCFF;disableMultiStrokeFill=1;disableMultiStroke=1;hachureGap=-1;fillWeight=-1;" parent="0Zcb1wvKVoteUL0pYanl-23" vertex="1">
                    <mxGeometry x="225" y="615" width="285" height="360" as="geometry"/>
                </mxCell>
                <mxCell id="0Zcb1wvKVoteUL0pYanl-26" value="&lt;font style=&quot;font-size: 25px;&quot;&gt;&lt;b&gt;P2S Client&lt;br&gt;192.168.99.0/24&lt;br&gt;&lt;br&gt;Client: 192.168.99.130&lt;/b&gt;&lt;/font&gt;" style="text;html=1;align=center;verticalAlign=middle;resizable=0;points=[];autosize=1;strokeColor=none;fillColor=none;fontSize=22;fontFamily=Comic Sans MS;fontColor=#000000;" parent="0Zcb1wvKVoteUL0pYanl-23" vertex="1">
                    <mxGeometry x="210" y="623" width="315" height="135" as="geometry"/>
                </mxCell>
                <mxCell id="0Zcb1wvKVoteUL0pYanl-27" value="" style="sketch=0;aspect=fixed;pointerEvents=1;shadow=0;dashed=0;html=1;strokeColor=none;labelPosition=center;verticalLabelPosition=bottom;verticalAlign=top;align=center;fillColor=#00188D;shape=mxgraph.azure.user;rounded=0;glass=0;labelBackgroundColor=#FFFF66;labelBorderColor=#FF0000;comic=0;jiggle=2;fillStyle=auto;curveFitting=1;sketchStyle=rough;strokeWidth=1;fontFamily=Comic Sans MS;fontSize=22;fontColor=#000000;" parent="0Zcb1wvKVoteUL0pYanl-23" vertex="1">
                    <mxGeometry x="345" y="884" width="47" height="50" as="geometry"/>
                </mxCell>
                <mxCell id="0Zcb1wvKVoteUL0pYanl-12" value="Base: ExR-branch" parent="0Zcb1wvKVoteUL0pYanl-0"/>
                <mxCell id="0Zcb1wvKVoteUL0pYanl-13" value="" style="rounded=0;whiteSpace=wrap;html=1;glass=0;labelBackgroundColor=#FFFF66;labelBorderColor=#FF0000;comic=0;sketch=1;jiggle=2;fillStyle=auto;curveFitting=1;sketchStyle=rough;strokeColor=#9673a6;strokeWidth=5;fontFamily=Comic Sans MS;fontSize=22;fillColor=#e1d5e7;disableMultiStroke=1;disableMultiStrokeFill=1;" parent="0Zcb1wvKVoteUL0pYanl-12" vertex="1">
                    <mxGeometry x="1140" y="615" width="390" height="360" as="geometry"/>
                </mxCell>
                <mxCell id="0Zcb1wvKVoteUL0pYanl-14" style="edgeStyle=none;curved=1;sketch=0;jumpStyle=none;jumpSize=2;orthogonalLoop=1;jettySize=auto;html=1;exitX=0.25;exitY=0;exitDx=0;exitDy=0;shadow=0;strokeColor=#7EA6E0;strokeWidth=4;fontFamily=Comic Sans MS;fontSize=22;fontColor=#000000;startArrow=diamond;startFill=0;endArrow=diamond;endFill=0;targetPerimeterSpacing=1;entryX=0.916;entryY=0.934;entryDx=0;entryDy=0;entryPerimeter=0;" parent="0Zcb1wvKVoteUL0pYanl-12" source="0Zcb1wvKVoteUL0pYanl-13" target="0Zcb1wvKVoteUL0pYanl-51" edge="1">
                    <mxGeometry relative="1" as="geometry">
                        <mxPoint x="690" y="285" as="targetPoint"/>
                    </mxGeometry>
                </mxCell>
                <mxCell id="0Zcb1wvKVoteUL0pYanl-15" style="edgeStyle=none;curved=1;sketch=0;jumpStyle=none;jumpSize=2;orthogonalLoop=1;jettySize=auto;html=1;exitX=0.25;exitY=0;exitDx=0;exitDy=0;shadow=0;strokeColor=#7EA6E0;strokeWidth=4;fontFamily=Comic Sans MS;fontSize=22;fontColor=#000000;startArrow=diamond;startFill=0;endArrow=diamond;endFill=0;targetPerimeterSpacing=1;entryX=0.728;entryY=1.02;entryDx=0;entryDy=0;entryPerimeter=0;" parent="0Zcb1wvKVoteUL0pYanl-12" source="0Zcb1wvKVoteUL0pYanl-16" target="0Zcb1wvKVoteUL0pYanl-51" edge="1">
                    <mxGeometry relative="1" as="geometry"/>
                </mxCell>
                <mxCell id="0Zcb1wvKVoteUL0pYanl-16" value="" style="rounded=0;whiteSpace=wrap;html=1;glass=0;labelBackgroundColor=#FFFF66;labelBorderColor=#FF0000;comic=0;sketch=1;jiggle=2;fillStyle=auto;curveFitting=1;sketchStyle=rough;strokeColor=#9673a6;strokeWidth=5;fontFamily=Comic Sans MS;fontSize=22;fillColor=#e1d5e7;disableMultiStrokeFill=1;disableMultiStroke=1;hachureGap=-1;fillWeight=-1;" parent="0Zcb1wvKVoteUL0pYanl-12" vertex="1">
                    <mxGeometry x="675" y="615" width="390" height="360" as="geometry"/>
                </mxCell>
                <mxCell id="0Zcb1wvKVoteUL0pYanl-17" value="&lt;font style=&quot;font-size: 25px;&quot;&gt;&lt;b&gt;HQ Site&lt;br&gt;10.99.0.0/16&lt;br&gt;&lt;br&gt;VM: 10.9.1.4&lt;/b&gt;&lt;/font&gt;" style="text;html=1;align=center;verticalAlign=middle;resizable=0;points=[];autosize=1;strokeColor=none;fillColor=none;fontSize=22;fontFamily=Comic Sans MS;fontColor=#000000;" parent="0Zcb1wvKVoteUL0pYanl-12" vertex="1">
                    <mxGeometry x="750" y="660" width="195" height="135" as="geometry"/>
                </mxCell>
                <mxCell id="0Zcb1wvKVoteUL0pYanl-18" value="&lt;font style=&quot;font-size: 25px;&quot;&gt;&lt;b&gt;AVS Site&lt;br&gt;10.100.0.0/16&lt;br&gt;&lt;br&gt;VM: 10.100.220.10&lt;/b&gt;&lt;/font&gt;" style="text;html=1;align=center;verticalAlign=middle;resizable=0;points=[];autosize=1;strokeColor=none;fillColor=none;fontSize=22;fontFamily=Comic Sans MS;fontColor=#000000;" parent="0Zcb1wvKVoteUL0pYanl-12" vertex="1">
                    <mxGeometry x="1216" y="623" width="270" height="135" as="geometry"/>
                </mxCell>
                <mxCell id="0Zcb1wvKVoteUL0pYanl-19" value="" style="aspect=fixed;html=1;points=[];align=center;image;fontSize=12;image=img/lib/azure2/networking/ExpressRoute_Circuits.svg;rounded=0;glass=0;labelBackgroundColor=#FFFF66;labelBorderColor=#FF0000;comic=0;sketch=1;jiggle=2;fillStyle=auto;curveFitting=1;sketchStyle=rough;strokeColor=#3399FF;strokeWidth=1;fontFamily=Comic Sans MS;fontColor=#000000;fillColor=#E6E6E6;gradientColor=none;" parent="0Zcb1wvKVoteUL0pYanl-12" vertex="1">
                    <mxGeometry x="1140" y="487" width="70" height="64" as="geometry"/>
                </mxCell>
                <mxCell id="0Zcb1wvKVoteUL0pYanl-20" value="" style="aspect=fixed;html=1;points=[];align=center;image;fontSize=12;image=img/lib/azure2/networking/ExpressRoute_Circuits.svg;rounded=0;glass=0;labelBackgroundColor=#FFFF66;labelBorderColor=#FF0000;comic=0;sketch=1;jiggle=2;fillStyle=auto;curveFitting=1;sketchStyle=rough;strokeColor=#3399FF;strokeWidth=1;fontFamily=Comic Sans MS;fontColor=#000000;fillColor=#E6E6E6;gradientColor=none;" parent="0Zcb1wvKVoteUL0pYanl-12" vertex="1">
                    <mxGeometry x="780" y="488" width="70" height="64" as="geometry"/>
                </mxCell>
                <mxCell id="0Zcb1wvKVoteUL0pYanl-21" value="" style="sketch=0;pointerEvents=1;shadow=0;dashed=0;html=1;strokeColor=none;fillColor=#505050;labelPosition=center;verticalLabelPosition=bottom;verticalAlign=top;outlineConnect=0;align=center;shape=mxgraph.office.servers.survivable_branch_appliance;rounded=0;glass=0;labelBackgroundColor=#FFFF66;labelBorderColor=#FF0000;comic=0;jiggle=2;fillStyle=auto;curveFitting=1;sketchStyle=rough;strokeWidth=1;fontFamily=Comic Sans MS;fontSize=22;fontColor=#000000;" parent="0Zcb1wvKVoteUL0pYanl-12" vertex="1">
                    <mxGeometry x="840" y="855" width="52" height="74" as="geometry"/>
                </mxCell>
                <mxCell id="0Zcb1wvKVoteUL0pYanl-22" value="" style="aspect=fixed;html=1;points=[];align=center;image;fontSize=12;image=img/lib/azure2/azure_vmware_solution/AVS.svg;rounded=0;glass=0;labelBackgroundColor=#FFFF66;labelBorderColor=#FF0000;comic=0;sketch=1;jiggle=2;fillStyle=auto;curveFitting=1;sketchStyle=rough;strokeColor=#3399FF;strokeWidth=1;fontFamily=Comic Sans MS;fontColor=#000000;fillColor=#E6E6E6;gradientColor=none;" parent="0Zcb1wvKVoteUL0pYanl-12" vertex="1">
                    <mxGeometry x="1290" y="885" width="70" height="56.00000000000001" as="geometry"/>
                </mxCell>
                <mxCell id="Gj4-7rek51OEj5r49d8h-14" value="Base: Second-Region" parent="0Zcb1wvKVoteUL0pYanl-0"/>
                <mxCell id="Gj4-7rek51OEj5r49d8h-21" value="" style="rounded=0;whiteSpace=wrap;html=1;glass=0;labelBackgroundColor=#FFFF66;labelBorderColor=#FF0000;comic=0;sketch=1;jiggle=2;fillStyle=auto;curveFitting=1;sketchStyle=rough;strokeColor=#9673a6;strokeWidth=5;fontFamily=Comic Sans MS;fontSize=22;fillColor=#e1d5e7;fontStyle=1;disableMultiStrokeFill=1;disableMultiStroke=1;hachureGap=-1;fillWeight=-1;" parent="Gj4-7rek51OEj5r49d8h-14" vertex="1">
                    <mxGeometry x="3540" y="600" width="390" height="360" as="geometry"/>
                </mxCell>
                <mxCell id="Gj4-7rek51OEj5r49d8h-22" style="edgeStyle=none;curved=1;sketch=0;jumpStyle=none;jumpSize=2;orthogonalLoop=1;jettySize=auto;html=1;exitX=0.25;exitY=0;exitDx=0;exitDy=0;shadow=0;strokeColor=#7EA6E0;strokeWidth=4;fontFamily=Comic Sans MS;fontSize=22;fontColor=#000000;startArrow=diamond;startFill=0;endArrow=diamond;endFill=0;targetPerimeterSpacing=1;entryX=0.916;entryY=0.934;entryDx=0;entryDy=0;entryPerimeter=0;fontStyle=1" parent="Gj4-7rek51OEj5r49d8h-14" source="Gj4-7rek51OEj5r49d8h-21" target="Gj4-7rek51OEj5r49d8h-56" edge="1">
                    <mxGeometry relative="1" as="geometry">
                        <mxPoint x="3090" y="270" as="targetPoint"/>
                    </mxGeometry>
                </mxCell>
                <mxCell id="Gj4-7rek51OEj5r49d8h-23" style="edgeStyle=none;curved=1;sketch=0;jumpStyle=none;jumpSize=2;orthogonalLoop=1;jettySize=auto;html=1;exitX=0.25;exitY=0;exitDx=0;exitDy=0;shadow=0;strokeColor=#7EA6E0;strokeWidth=4;fontFamily=Comic Sans MS;fontSize=22;fontColor=#000000;startArrow=diamond;startFill=0;endArrow=diamond;endFill=0;targetPerimeterSpacing=1;entryX=0.728;entryY=1.02;entryDx=0;entryDy=0;entryPerimeter=0;fontStyle=1" parent="Gj4-7rek51OEj5r49d8h-14" source="Gj4-7rek51OEj5r49d8h-24" target="Gj4-7rek51OEj5r49d8h-56" edge="1">
                    <mxGeometry relative="1" as="geometry"/>
                </mxCell>
                <mxCell id="Gj4-7rek51OEj5r49d8h-24" value="" style="rounded=0;whiteSpace=wrap;html=1;glass=0;labelBackgroundColor=#FFFF66;labelBorderColor=#FF0000;comic=0;sketch=1;jiggle=2;fillStyle=auto;curveFitting=1;sketchStyle=rough;strokeColor=#9673a6;strokeWidth=5;fontFamily=Comic Sans MS;fontSize=22;fillColor=#e1d5e7;disableMultiStrokeFill=1;disableMultiStroke=1;hachureGap=-1;fillWeight=-1;fontStyle=1" parent="Gj4-7rek51OEj5r49d8h-14" vertex="1">
                    <mxGeometry x="3075" y="600" width="390" height="360" as="geometry"/>
                </mxCell>
                <mxCell id="Gj4-7rek51OEj5r49d8h-25" value="HQ Site 2&lt;br&gt;10.103.0.0/16&lt;br&gt;&lt;br&gt;VM: 10.103.1.4" style="text;html=1;align=center;verticalAlign=middle;resizable=0;points=[];autosize=1;strokeColor=none;fillColor=none;fontSize=22;fontFamily=Comic Sans MS;fontColor=#000000;fontStyle=1" parent="Gj4-7rek51OEj5r49d8h-14" vertex="1">
                    <mxGeometry x="3166" y="615" width="210" height="120" as="geometry"/>
                </mxCell>
                <mxCell id="Gj4-7rek51OEj5r49d8h-26" value="AVS Site 2&lt;br&gt;10.104.0.0/16&lt;br&gt;&lt;br&gt;VM: 10.104.220.10" style="text;html=1;align=center;verticalAlign=middle;resizable=0;points=[];autosize=1;strokeColor=none;fillColor=none;fontSize=22;fontFamily=Comic Sans MS;fontColor=#000000;fontStyle=1" parent="Gj4-7rek51OEj5r49d8h-14" vertex="1">
                    <mxGeometry x="3631" y="615" width="240" height="120" as="geometry"/>
                </mxCell>
                <mxCell id="Gj4-7rek51OEj5r49d8h-27" value="" style="aspect=fixed;html=1;points=[];align=center;image;fontSize=12;image=img/lib/azure2/networking/ExpressRoute_Circuits.svg;rounded=0;glass=0;labelBackgroundColor=#FFFF66;labelBorderColor=#FF0000;comic=0;sketch=1;jiggle=2;fillStyle=auto;curveFitting=1;sketchStyle=rough;strokeColor=#3399FF;strokeWidth=1;fontFamily=Comic Sans MS;fontColor=#000000;fillColor=#E6E6E6;gradientColor=none;fontStyle=1" parent="Gj4-7rek51OEj5r49d8h-14" vertex="1">
                    <mxGeometry x="3540" y="472" width="70" height="64" as="geometry"/>
                </mxCell>
                <mxCell id="Gj4-7rek51OEj5r49d8h-28" value="" style="aspect=fixed;html=1;points=[];align=center;image;fontSize=12;image=img/lib/azure2/networking/ExpressRoute_Circuits.svg;rounded=0;glass=0;labelBackgroundColor=#FFFF66;labelBorderColor=#FF0000;comic=0;sketch=1;jiggle=2;fillStyle=auto;curveFitting=1;sketchStyle=rough;strokeColor=#3399FF;strokeWidth=1;fontFamily=Comic Sans MS;fontColor=#000000;fillColor=#E6E6E6;gradientColor=none;fontStyle=1" parent="Gj4-7rek51OEj5r49d8h-14" vertex="1">
                    <mxGeometry x="3180" y="473" width="70" height="64" as="geometry"/>
                </mxCell>
                <mxCell id="Gj4-7rek51OEj5r49d8h-29" value="" style="sketch=0;pointerEvents=1;shadow=0;dashed=0;html=1;strokeColor=none;fillColor=#505050;labelPosition=center;verticalLabelPosition=bottom;verticalAlign=top;outlineConnect=0;align=center;shape=mxgraph.office.servers.survivable_branch_appliance;rounded=0;glass=0;labelBackgroundColor=#FFFF66;labelBorderColor=#FF0000;comic=0;jiggle=2;fillStyle=auto;curveFitting=1;sketchStyle=rough;strokeWidth=1;fontFamily=Comic Sans MS;fontSize=22;fontColor=#000000;fontStyle=1" parent="Gj4-7rek51OEj5r49d8h-14" vertex="1">
                    <mxGeometry x="3240" y="840" width="52" height="74" as="geometry"/>
                </mxCell>
                <mxCell id="Gj4-7rek51OEj5r49d8h-30" value="" style="aspect=fixed;html=1;points=[];align=center;image;fontSize=12;image=img/lib/azure2/azure_vmware_solution/AVS.svg;rounded=0;glass=0;labelBackgroundColor=#FFFF66;labelBorderColor=#FF0000;comic=0;sketch=1;jiggle=2;fillStyle=auto;curveFitting=1;sketchStyle=rough;strokeColor=#3399FF;strokeWidth=1;fontFamily=Comic Sans MS;fontColor=#000000;fillColor=#E6E6E6;gradientColor=none;fontStyle=1" parent="Gj4-7rek51OEj5r49d8h-14" vertex="1">
                    <mxGeometry x="3690" y="870" width="70" height="56.00000000000001" as="geometry"/>
                </mxCell>
                <mxCell id="Gj4-7rek51OEj5r49d8h-31" style="edgeStyle=none;curved=1;sketch=0;jumpStyle=none;jumpSize=2;orthogonalLoop=1;jettySize=auto;html=1;exitX=0.5;exitY=0;exitDx=0;exitDy=0;shadow=0;strokeColor=#7EA6E0;strokeWidth=4;fontFamily=Comic Sans MS;fontSize=22;fontColor=#000000;startArrow=diamond;startFill=0;endArrow=diamond;endFill=0;targetPerimeterSpacing=1;fontStyle=1" parent="Gj4-7rek51OEj5r49d8h-14" source="Gj4-7rek51OEj5r49d8h-32" target="Gj4-7rek51OEj5r49d8h-55" edge="1">
                    <mxGeometry relative="1" as="geometry"/>
                </mxCell>
                <mxCell id="Gj4-7rek51OEj5r49d8h-32" value="" style="rounded=0;whiteSpace=wrap;html=1;glass=0;labelBackgroundColor=#FFFF66;labelBorderColor=#FF0000;comic=0;sketch=1;jiggle=2;fillStyle=auto;curveFitting=1;sketchStyle=rough;strokeColor=#FF00FF;strokeWidth=5;fontFamily=Comic Sans MS;fontSize=22;fillColor=#FFCCFF;disableMultiStrokeFill=1;disableMultiStroke=1;hachureGap=-1;fillWeight=-1;fontStyle=1" parent="Gj4-7rek51OEj5r49d8h-14" vertex="1">
                    <mxGeometry x="2625" y="600" width="285" height="360" as="geometry"/>
                </mxCell>
                <mxCell id="Gj4-7rek51OEj5r49d8h-33" value="P2S Client&lt;br&gt;192.168.100.0/24&lt;br&gt;&lt;br&gt;Client: 192.168.100.130" style="text;html=1;align=center;verticalAlign=middle;resizable=0;points=[];autosize=1;strokeColor=none;fillColor=none;fontSize=22;fontFamily=Comic Sans MS;fontColor=#000000;fontStyle=1" parent="Gj4-7rek51OEj5r49d8h-14" vertex="1">
                    <mxGeometry x="2618" y="615" width="300" height="120" as="geometry"/>
                </mxCell>
                <mxCell id="Gj4-7rek51OEj5r49d8h-34" value="" style="sketch=0;aspect=fixed;pointerEvents=1;shadow=0;dashed=0;html=1;strokeColor=none;labelPosition=center;verticalLabelPosition=bottom;verticalAlign=top;align=center;fillColor=#00188D;shape=mxgraph.azure.user;rounded=0;glass=0;labelBackgroundColor=#FFFF66;labelBorderColor=#FF0000;comic=0;jiggle=2;fillStyle=auto;curveFitting=1;sketchStyle=rough;strokeWidth=1;fontFamily=Comic Sans MS;fontSize=22;fontColor=#000000;fontStyle=1" parent="Gj4-7rek51OEj5r49d8h-14" vertex="1">
                    <mxGeometry x="2745" y="869" width="47" height="50" as="geometry"/>
                </mxCell>
                <mxCell id="Gj4-7rek51OEj5r49d8h-35" style="edgeStyle=none;curved=1;sketch=0;jumpStyle=none;jumpSize=2;orthogonalLoop=1;jettySize=auto;html=1;exitX=0.5;exitY=0;exitDx=0;exitDy=0;shadow=0;strokeColor=#7EA6E0;strokeWidth=4;fontFamily=Comic Sans MS;fontSize=22;fontColor=#000000;startArrow=diamond;startFill=0;endArrow=diamond;endFill=0;targetPerimeterSpacing=1;fontStyle=1" parent="Gj4-7rek51OEj5r49d8h-14" source="Gj4-7rek51OEj5r49d8h-36" target="Gj4-7rek51OEj5r49d8h-54" edge="1">
                    <mxGeometry relative="1" as="geometry">
                        <mxPoint x="2550" y="270" as="targetPoint"/>
                    </mxGeometry>
                </mxCell>
                <mxCell id="Gj4-7rek51OEj5r49d8h-36" value="" style="rounded=0;whiteSpace=wrap;html=1;glass=0;labelBackgroundColor=#FFFF66;labelBorderColor=#FF0000;comic=0;sketch=1;jiggle=2;fillStyle=auto;curveFitting=1;sketchStyle=rough;strokeColor=#FF8000;strokeWidth=5;fontFamily=Comic Sans MS;fontSize=22;fillColor=#FFE6CC;disableMultiStrokeFill=1;disableMultiStroke=1;hachureGap=-1;fillWeight=-1;fontStyle=1" parent="Gj4-7rek51OEj5r49d8h-14" vertex="1">
                    <mxGeometry x="1800" y="600" width="285" height="360" as="geometry"/>
                </mxCell>
                <mxCell id="Gj4-7rek51OEj5r49d8h-37" style="edgeStyle=none;curved=1;sketch=0;jumpStyle=none;jumpSize=2;orthogonalLoop=1;jettySize=auto;html=1;exitX=0.5;exitY=0;exitDx=0;exitDy=0;shadow=0;strokeColor=#7EA6E0;strokeWidth=4;fontFamily=Comic Sans MS;fontSize=22;fontColor=#000000;startArrow=diamond;startFill=0;endArrow=diamond;endFill=0;targetPerimeterSpacing=1;entryX=0.554;entryY=0.954;entryDx=0;entryDy=0;entryPerimeter=0;fontStyle=1" parent="Gj4-7rek51OEj5r49d8h-14" source="Gj4-7rek51OEj5r49d8h-38" target="Gj4-7rek51OEj5r49d8h-54" edge="1">
                    <mxGeometry relative="1" as="geometry">
                        <mxPoint x="2580" y="285" as="targetPoint"/>
                    </mxGeometry>
                </mxCell>
                <mxCell id="Gj4-7rek51OEj5r49d8h-38" value="" style="rounded=0;whiteSpace=wrap;html=1;glass=0;labelBackgroundColor=#FFFF66;labelBorderColor=#FF0000;comic=0;sketch=1;jiggle=2;fillStyle=auto;curveFitting=1;sketchStyle=rough;strokeColor=#FF8000;strokeWidth=5;fontFamily=Comic Sans MS;fontSize=22;fillColor=#FFE6CC;disableMultiStrokeFill=1;disableMultiStroke=1;hachureGap=-1;fillWeight=-1;fontStyle=1" parent="Gj4-7rek51OEj5r49d8h-14" vertex="1">
                    <mxGeometry x="2220" y="600" width="285" height="360" as="geometry"/>
                </mxCell>
                <mxCell id="Gj4-7rek51OEj5r49d8h-39" value="Branch3&lt;br&gt;10.101.0.0/16&lt;br&gt;&lt;br&gt;VM: 10.101.1.4" style="text;html=1;align=center;verticalAlign=middle;resizable=0;points=[];autosize=1;strokeColor=none;fillColor=none;fontSize=22;fontFamily=Comic Sans MS;fontColor=#000000;fontStyle=1" parent="Gj4-7rek51OEj5r49d8h-14" vertex="1">
                    <mxGeometry x="1824" y="615" width="210" height="120" as="geometry"/>
                </mxCell>
                <mxCell id="Gj4-7rek51OEj5r49d8h-40" value="Branch4&lt;br&gt;10.102.0.0/16&lt;br&gt;&lt;br&gt;VM: 10.102.2.5" style="text;html=1;align=center;verticalAlign=middle;resizable=0;points=[];autosize=1;strokeColor=none;fillColor=none;fontSize=22;fontFamily=Comic Sans MS;fontColor=#000000;fontStyle=1" parent="Gj4-7rek51OEj5r49d8h-14" vertex="1">
                    <mxGeometry x="2242" y="600" width="210" height="120" as="geometry"/>
                </mxCell>
                <mxCell id="Gj4-7rek51OEj5r49d8h-41" value="" style="aspect=fixed;html=1;points=[];align=center;image;fontSize=12;image=img/lib/azure2/compute/Virtual_Machine.svg;rounded=0;glass=0;labelBackgroundColor=#FFFF66;labelBorderColor=#FF0000;comic=0;sketch=1;jiggle=2;fillStyle=auto;curveFitting=1;sketchStyle=rough;strokeColor=#3399FF;strokeWidth=1;fontFamily=Comic Sans MS;fontColor=#000000;fillColor=#E6E6E6;gradientColor=none;fontStyle=1" parent="Gj4-7rek51OEj5r49d8h-14" vertex="1">
                    <mxGeometry x="1893" y="855" width="69" height="64" as="geometry"/>
                </mxCell>
                <mxCell id="Gj4-7rek51OEj5r49d8h-42" value="" style="aspect=fixed;html=1;points=[];align=center;image;fontSize=12;image=img/lib/azure2/compute/Virtual_Machine.svg;rounded=0;glass=0;labelBackgroundColor=#FFFF66;labelBorderColor=#FF0000;comic=0;sketch=1;jiggle=2;fillStyle=auto;curveFitting=1;sketchStyle=rough;strokeColor=#3399FF;strokeWidth=1;fontFamily=Comic Sans MS;fontColor=#000000;fillColor=#E6E6E6;gradientColor=none;fontStyle=1" parent="Gj4-7rek51OEj5r49d8h-14" vertex="1">
                    <mxGeometry x="2328" y="870" width="69" height="64" as="geometry"/>
                </mxCell>
                <mxCell id="Gj4-7rek51OEj5r49d8h-43" value="" style="rounded=0;whiteSpace=wrap;html=1;glass=0;labelBackgroundColor=#FFFF66;labelBorderColor=#FF0000;comic=0;fillStyle=auto;sketchStyle=rough;strokeColor=#3399FF;strokeWidth=5;fontFamily=Comic Sans MS;fontSize=22;fontColor=#000000;fillColor=#CCE5FF;gradientColor=none;dashGap=0;zigzagOffset=0;dashOffset=0;fixDash=0;sketch=1;curveFitting=1;jiggle=1;disableMultiStroke=1;disableMultiStrokeFill=1;hachureGap=-1;fillWeight=-1;snapToPoint=1;fontStyle=1" parent="Gj4-7rek51OEj5r49d8h-14" vertex="1">
                    <mxGeometry x="2460" y="-105" width="720" height="405" as="geometry"/>
                </mxCell>
                <mxCell id="Gj4-7rek51OEj5r49d8h-44" value="" style="rounded=0;whiteSpace=wrap;html=1;glass=0;labelBackgroundColor=#FFFF66;labelBorderColor=#FF0000;comic=0;sketch=1;jiggle=1;fillStyle=auto;curveFitting=1;sketchStyle=rough;strokeColor=#3399FF;strokeWidth=5;fontFamily=Comic Sans MS;fontSize=22;fontColor=#000000;fillColor=#CCE5FF;gradientColor=none;disableMultiStroke=1;disableMultiStrokeFill=1;hachureGap=-1;fillWeight=-1;fontStyle=1" parent="Gj4-7rek51OEj5r49d8h-14" vertex="1">
                    <mxGeometry x="2880" y="-495" width="345" height="195" as="geometry"/>
                </mxCell>
                <mxCell id="Gj4-7rek51OEj5r49d8h-45" value="" style="rounded=0;whiteSpace=wrap;html=1;glass=0;labelBackgroundColor=#FFFF66;labelBorderColor=#FF0000;comic=0;sketch=1;jiggle=1;fillStyle=auto;curveFitting=1;sketchStyle=rough;strokeColor=#3399FF;strokeWidth=5;fontFamily=Comic Sans MS;fontSize=22;fontColor=#000000;fillColor=#CCE5FF;gradientColor=none;disableMultiStroke=1;disableMultiStrokeFill=1;hachureGap=-1;fillWeight=-1;fontStyle=1" parent="Gj4-7rek51OEj5r49d8h-14" vertex="1">
                    <mxGeometry x="2430" y="-495" width="345" height="195" as="geometry"/>
                </mxCell>
                <mxCell id="Gj4-7rek51OEj5r49d8h-46" style="edgeStyle=none;curved=1;sketch=0;jumpStyle=none;jumpSize=2;orthogonalLoop=1;jettySize=auto;html=1;exitX=0.5;exitY=1;exitDx=0;exitDy=0;shadow=0;strokeColor=#7EA6E0;strokeWidth=4;fontFamily=Comic Sans MS;fontSize=22;fontColor=#000000;startArrow=diamond;startFill=0;endArrow=diamond;endFill=0;targetPerimeterSpacing=1;entryX=0.25;entryY=0;entryDx=0;entryDy=0;fontStyle=1" parent="Gj4-7rek51OEj5r49d8h-14" source="Gj4-7rek51OEj5r49d8h-45" target="Gj4-7rek51OEj5r49d8h-43" edge="1">
                    <mxGeometry relative="1" as="geometry">
                        <mxPoint x="2685" y="-120" as="targetPoint"/>
                    </mxGeometry>
                </mxCell>
                <mxCell id="Gj4-7rek51OEj5r49d8h-47" value="Spoke3&lt;br&gt;10.13.0.0/16" style="text;html=1;align=center;verticalAlign=middle;resizable=0;points=[];autosize=1;strokeColor=none;fillColor=none;fontSize=22;fontFamily=Comic Sans MS;fontColor=#000000;fontStyle=1" parent="Gj4-7rek51OEj5r49d8h-14" vertex="1">
                    <mxGeometry x="2529.17" y="-510" width="180" height="75" as="geometry"/>
                </mxCell>
                <mxCell id="Gj4-7rek51OEj5r49d8h-48" style="edgeStyle=none;curved=1;sketch=0;jumpStyle=none;jumpSize=2;orthogonalLoop=1;jettySize=auto;html=1;exitX=0.5;exitY=1;exitDx=0;exitDy=0;entryX=0.75;entryY=0;entryDx=0;entryDy=0;shadow=0;strokeColor=#7EA6E0;strokeWidth=4;fontFamily=Comic Sans MS;fontSize=22;fontColor=#000000;startArrow=diamond;startFill=0;endArrow=diamond;endFill=0;targetPerimeterSpacing=1;fontStyle=1" parent="Gj4-7rek51OEj5r49d8h-14" source="Gj4-7rek51OEj5r49d8h-44" target="Gj4-7rek51OEj5r49d8h-43" edge="1">
                    <mxGeometry relative="1" as="geometry">
                        <Array as="points">
                            <mxPoint x="3015" y="-195"/>
                        </Array>
                    </mxGeometry>
                </mxCell>
                <mxCell id="Gj4-7rek51OEj5r49d8h-49" value="Spoke4&lt;br&gt;10.14.0.0/16" style="text;html=1;align=center;verticalAlign=middle;resizable=0;points=[];autosize=1;strokeColor=none;fillColor=none;fontSize=22;fontFamily=Comic Sans MS;fontColor=#000000;fontStyle=1" parent="Gj4-7rek51OEj5r49d8h-14" vertex="1">
                    <mxGeometry x="2963" y="-495" width="180" height="75" as="geometry"/>
                </mxCell>
                <mxCell id="Gj4-7rek51OEj5r49d8h-50" value="vWAN HUB&lt;br&gt;192.168.102.0/24" style="text;html=1;align=center;verticalAlign=middle;resizable=0;points=[];autosize=1;strokeColor=none;fillColor=none;fontSize=22;fontFamily=Comic Sans MS;fontColor=#000000;fontStyle=1" parent="Gj4-7rek51OEj5r49d8h-14" vertex="1">
                    <mxGeometry x="2693" y="-90" width="225" height="75" as="geometry"/>
                </mxCell>
                <mxCell id="Gj4-7rek51OEj5r49d8h-51" value="" style="aspect=fixed;html=1;points=[];align=center;image;fontSize=12;image=img/lib/azure2/networking/Virtual_WANs.svg;rounded=0;glass=0;labelBackgroundColor=#FFFF66;labelBorderColor=#FF0000;comic=0;sketch=1;jiggle=2;fillStyle=auto;curveFitting=1;sketchStyle=rough;strokeColor=#3399FF;strokeWidth=1;fontFamily=Comic Sans MS;fontColor=#000000;fillColor=#E6E6E6;gradientColor=none;fontStyle=1" parent="Gj4-7rek51OEj5r49d8h-14" vertex="1">
                    <mxGeometry x="2775" y="-20" width="76.17" height="75" as="geometry"/>
                </mxCell>
                <mxCell id="Gj4-7rek51OEj5r49d8h-52" value="" style="aspect=fixed;html=1;points=[];align=center;image;fontSize=12;image=img/lib/azure2/networking/Virtual_Networks.svg;rounded=0;glass=0;labelBackgroundColor=#FFFF66;labelBorderColor=#FF0000;comic=0;sketch=1;jiggle=2;fillStyle=auto;curveFitting=1;sketchStyle=rough;strokeColor=#3399FF;strokeWidth=1;fontFamily=Comic Sans MS;fontColor=#000000;fillColor=#E6E6E6;gradientColor=none;fontStyle=1" parent="Gj4-7rek51OEj5r49d8h-14" vertex="1">
                    <mxGeometry x="2475" y="-480" width="67" height="40" as="geometry"/>
                </mxCell>
                <mxCell id="Gj4-7rek51OEj5r49d8h-53" value="" style="aspect=fixed;html=1;points=[];align=center;image;fontSize=12;image=img/lib/azure2/networking/Virtual_Networks.svg;rounded=0;glass=0;labelBackgroundColor=#FFFF66;labelBorderColor=#FF0000;comic=0;sketch=1;jiggle=2;fillStyle=auto;curveFitting=1;sketchStyle=rough;strokeColor=#3399FF;strokeWidth=1;fontFamily=Comic Sans MS;fontColor=#000000;fillColor=#E6E6E6;gradientColor=none;fontStyle=1" parent="Gj4-7rek51OEj5r49d8h-14" vertex="1">
                    <mxGeometry x="2895" y="-477.5" width="67" height="40" as="geometry"/>
                </mxCell>
                <mxCell id="Gj4-7rek51OEj5r49d8h-54" value="" style="aspect=fixed;html=1;points=[];align=center;image;fontSize=12;image=img/lib/azure2/networking/Virtual_Network_Gateways.svg;rounded=0;glass=0;labelBackgroundColor=#FFFF66;labelBorderColor=#FF0000;comic=0;sketch=1;jiggle=2;fillStyle=auto;curveFitting=1;sketchStyle=rough;strokeColor=#3399FF;strokeWidth=1;fontFamily=Comic Sans MS;fontColor=#000000;fillColor=#E6E6E6;gradientColor=none;fontStyle=1" parent="Gj4-7rek51OEj5r49d8h-14" vertex="1">
                    <mxGeometry x="2550" y="210" width="52" height="69" as="geometry"/>
                </mxCell>
                <mxCell id="Gj4-7rek51OEj5r49d8h-55" value="" style="aspect=fixed;html=1;points=[];align=center;image;fontSize=12;image=img/lib/azure2/networking/Virtual_Network_Gateways.svg;rounded=0;glass=0;labelBackgroundColor=#FFFF66;labelBorderColor=#FF0000;comic=0;sketch=1;jiggle=2;fillStyle=auto;curveFitting=1;sketchStyle=rough;strokeColor=#3399FF;strokeWidth=1;fontFamily=Comic Sans MS;fontColor=#000000;fillColor=#E6E6E6;gradientColor=none;fontStyle=1" parent="Gj4-7rek51OEj5r49d8h-14" vertex="1">
                    <mxGeometry x="2805.5" y="195" width="52" height="69" as="geometry"/>
                </mxCell>
                <mxCell id="Gj4-7rek51OEj5r49d8h-56" value="" style="aspect=fixed;html=1;points=[];align=center;image;fontSize=12;image=img/lib/azure2/networking/Virtual_Network_Gateways.svg;rounded=0;glass=0;labelBackgroundColor=#FFFF66;labelBorderColor=#FF0000;comic=0;sketch=1;jiggle=2;fillStyle=auto;curveFitting=1;sketchStyle=rough;strokeColor=#3399FF;strokeWidth=1;fontFamily=Comic Sans MS;fontColor=#000000;fillColor=#E6E6E6;gradientColor=none;fontStyle=1" parent="Gj4-7rek51OEj5r49d8h-14" vertex="1">
                    <mxGeometry x="3075" y="195" width="52" height="69" as="geometry"/>
                </mxCell>
                <mxCell id="Gj4-7rek51OEj5r49d8h-57" value="" style="aspect=fixed;html=1;points=[];align=center;image;fontSize=12;image=img/lib/azure2/compute/Virtual_Machine.svg;rounded=0;glass=0;labelBackgroundColor=#FFFF66;labelBorderColor=#FF0000;comic=0;sketch=1;jiggle=2;fillStyle=auto;curveFitting=1;sketchStyle=rough;strokeColor=#3399FF;strokeWidth=1;fontFamily=Comic Sans MS;fontColor=#000000;fillColor=#E6E6E6;gradientColor=none;fontStyle=1" parent="Gj4-7rek51OEj5r49d8h-14" vertex="1">
                    <mxGeometry x="2475" y="-405" width="69" height="64" as="geometry"/>
                </mxCell>
                <mxCell id="Gj4-7rek51OEj5r49d8h-58" value="" style="aspect=fixed;html=1;points=[];align=center;image;fontSize=12;image=img/lib/azure2/compute/Container_Services_Deprecated.svg;rounded=0;glass=0;labelBackgroundColor=#FFFF66;labelBorderColor=#FF0000;comic=0;sketch=1;jiggle=2;fillStyle=auto;curveFitting=1;sketchStyle=rough;strokeColor=#3399FF;strokeWidth=1;fontFamily=Comic Sans MS;fontColor=#000000;fillColor=#E6E6E6;gradientColor=none;fontStyle=1" parent="Gj4-7rek51OEj5r49d8h-14" vertex="1">
                    <mxGeometry x="2940" y="-405" width="68" height="60" as="geometry"/>
                </mxCell>
                <mxCell id="Gj4-7rek51OEj5r49d8h-60" value="ER VPN&lt;br&gt;GW" style="text;html=1;align=center;verticalAlign=middle;resizable=0;points=[];autosize=1;strokeColor=none;fillColor=none;fontSize=20;fontFamily=Comic Sans MS;fontColor=#000000;fontStyle=1" parent="Gj4-7rek51OEj5r49d8h-14" vertex="1">
                    <mxGeometry x="3045" y="135" width="105" height="60" as="geometry"/>
                </mxCell>
                <mxCell id="Gj4-7rek51OEj5r49d8h-61" value="P2S VPN&lt;br&gt;GW" style="text;html=1;align=center;verticalAlign=middle;resizable=0;points=[];autosize=1;strokeColor=none;fillColor=none;fontSize=20;fontFamily=Comic Sans MS;fontColor=#000000;fontStyle=1" parent="Gj4-7rek51OEj5r49d8h-14" vertex="1">
                    <mxGeometry x="2765" y="135" width="120" height="60" as="geometry"/>
                </mxCell>
                <mxCell id="Gj4-7rek51OEj5r49d8h-62" value="Internet" style="ellipse;shape=cloud;whiteSpace=wrap;html=1;rounded=0;glass=0;labelBackgroundColor=default;sketch=0;fillStyle=auto;strokeColor=#000000;strokeWidth=4;fontFamily=Comic Sans MS;fontSize=25;fontColor=#000000;fillColor=none;gradientColor=none;opacity=70;fontStyle=1" parent="Gj4-7rek51OEj5r49d8h-14" vertex="1">
                    <mxGeometry x="3450" y="-615" width="675" height="165" as="geometry"/>
                </mxCell>
                <mxCell id="Gj4-7rek51OEj5r49d8h-63" style="edgeStyle=none;curved=1;orthogonalLoop=1;jettySize=auto;html=1;exitX=1.014;exitY=0.428;exitDx=0;exitDy=0;strokeColor=#3399FF;strokeWidth=7;fontFamily=Comic Sans MS;fontSize=25;fontColor=#000000;startArrow=diamond;startFill=1;endArrow=diamond;endFill=1;exitPerimeter=0;" parent="Gj4-7rek51OEj5r49d8h-14" source="0Zcb1wvKVoteUL0pYanl-40" edge="1">
                    <mxGeometry relative="1" as="geometry">
                        <mxPoint x="2460" y="83" as="targetPoint"/>
                    </mxGeometry>
                </mxCell>
                <mxCell id="mq8fEUFOC8pdxFk_0g2d-5" value="&lt;font color=&quot;#3399ff&quot; style=&quot;font-size: 40px;&quot;&gt;Inter hub connectivity&lt;/font&gt;" style="edgeLabel;html=1;align=center;verticalAlign=middle;resizable=0;points=[];fontSize=31;fontFamily=Comic Sans MS;fontColor=#000000;" parent="Gj4-7rek51OEj5r49d8h-63" vertex="1" connectable="0">
                    <mxGeometry x="-0.1777" relative="1" as="geometry">
                        <mxPoint x="129" as="offset"/>
                    </mxGeometry>
                </mxCell>
                <mxCell id="Gj4-7rek51OEj5r49d8h-69" style="edgeStyle=none;curved=1;sketch=0;jumpStyle=none;jumpSize=2;orthogonalLoop=1;jettySize=auto;html=1;exitX=0.5;exitY=0;exitDx=0;exitDy=0;shadow=0;strokeColor=#7EA6E0;strokeWidth=4;fontFamily=Comic Sans MS;fontSize=22;fontColor=#000000;startArrow=diamond;startFill=0;endArrow=diamond;endFill=0;targetPerimeterSpacing=1;entryX=0.554;entryY=0.954;entryDx=0;entryDy=0;entryPerimeter=0;fontStyle=1" parent="Gj4-7rek51OEj5r49d8h-14" edge="1">
                    <mxGeometry relative="1" as="geometry">
                        <mxPoint x="2578.808" y="275.826" as="targetPoint"/>
                        <mxPoint x="2362.5" y="600" as="sourcePoint"/>
                    </mxGeometry>
                </mxCell>
                <mxCell id="Gj4-7rek51OEj5r49d8h-59" value="&lt;font style=&quot;font-size: 21px;&quot;&gt;S2S VPN&lt;br&gt;GW&lt;/font&gt;" style="text;html=1;align=center;verticalAlign=middle;resizable=0;points=[];autosize=1;strokeColor=none;fillColor=none;fontSize=20;fontFamily=Comic Sans MS;fontColor=#000000;fontStyle=1" parent="Gj4-7rek51OEj5r49d8h-14" vertex="1">
                    <mxGeometry x="2520" y="135" width="120" height="60" as="geometry"/>
                </mxCell>
                <mxCell id="24" style="edgeStyle=none;curved=1;sketch=1;hachureGap=4;jiggle=2;curveFitting=1;html=1;strokeColor=#3399FF;strokeWidth=3;fontFamily=Architects Daughter;fontSource=https%3A%2F%2Ffonts.googleapis.com%2Fcss%3Ffamily%3DArchitects%2BDaughter;fontSize=30;fontColor=#FF0000;startArrow=none;startFill=0;endArrow=none;endFill=0;" parent="Gj4-7rek51OEj5r49d8h-14" edge="1">
                    <mxGeometry relative="1" as="geometry">
                        <mxPoint x="2460" y="113" as="sourcePoint"/>
                        <mxPoint x="3180" y="113" as="targetPoint"/>
                    </mxGeometry>
                </mxCell>
                <mxCell id="Gj4-7rek51OEj5r49d8h-6" value="Scenario-1: Default Flows-Region-1" parent="0Zcb1wvKVoteUL0pYanl-0"/>
                <mxCell id="Gj4-7rek51OEj5r49d8h-8" style="edgeStyle=none;curved=1;sketch=0;jumpStyle=none;jumpSize=2;orthogonalLoop=1;jettySize=auto;html=1;exitX=0.75;exitY=0;exitDx=0;exitDy=0;entryX=0.244;entryY=-0.016;entryDx=0;entryDy=0;entryPerimeter=0;shadow=0;dashed=1;strokeColor=#00CC00;strokeWidth=6;fontFamily=Comic Sans MS;fontSize=20;fontColor=#000000;startArrow=classic;startFill=1;endArrow=classic;endFill=1;targetPerimeterSpacing=1;" parent="Gj4-7rek51OEj5r49d8h-6" edge="1">
                    <mxGeometry relative="1" as="geometry">
                        <Array as="points">
                            <mxPoint x="180" y="285"/>
                            <mxPoint x="75" y="420"/>
                        </Array>
                        <mxPoint x="-371.25" y="630" as="sourcePoint"/>
                        <mxPoint x="-80.73999999999978" y="628.0799999999999" as="targetPoint"/>
                    </mxGeometry>
                </mxCell>
                <mxCell id="Gj4-7rek51OEj5r49d8h-9" style="edgeStyle=none;curved=1;sketch=0;jumpStyle=none;jumpSize=2;orthogonalLoop=1;jettySize=auto;html=1;exitX=0.75;exitY=0;exitDx=0;exitDy=0;entryX=0.25;entryY=0;entryDx=0;entryDy=0;shadow=0;dashed=1;strokeColor=#00CC00;strokeWidth=6;fontFamily=Comic Sans MS;fontSize=20;fontColor=#000000;startArrow=classic;startFill=1;endArrow=none;endFill=0;targetPerimeterSpacing=1;" parent="Gj4-7rek51OEj5r49d8h-6" edge="1">
                    <mxGeometry relative="1" as="geometry">
                        <Array as="points">
                            <mxPoint x="405"/>
                        </Array>
                        <mxPoint x="48.75" y="630" as="sourcePoint"/>
                        <mxPoint x="311.25" y="630" as="targetPoint"/>
                    </mxGeometry>
                </mxCell>
                <mxCell id="Gj4-7rek51OEj5r49d8h-11" style="edgeStyle=none;curved=1;sketch=0;jumpStyle=none;jumpSize=2;orthogonalLoop=1;jettySize=auto;html=1;exitX=0.75;exitY=0;exitDx=0;exitDy=0;entryX=0.105;entryY=-0.005;entryDx=0;entryDy=0;entryPerimeter=0;shadow=0;dashed=1;strokeColor=#00CC00;strokeWidth=6;fontFamily=Comic Sans MS;fontSize=20;fontColor=#000000;startArrow=classic;startFill=1;endArrow=classic;endFill=1;targetPerimeterSpacing=1;" parent="Gj4-7rek51OEj5r49d8h-6" edge="1">
                    <mxGeometry relative="1" as="geometry">
                        <Array as="points">
                            <mxPoint x="870" y="450"/>
                        </Array>
                        <mxPoint x="982.5000000000005" y="630" as="sourcePoint"/>
                        <mxPoint x="1195.9499999999998" y="628.1999999999998" as="targetPoint"/>
                    </mxGeometry>
                </mxCell>
                <mxCell id="Gj4-7rek51OEj5r49d8h-12" style="edgeStyle=none;curved=1;sketch=0;jumpStyle=none;jumpSize=2;orthogonalLoop=1;jettySize=auto;html=1;exitX=0.75;exitY=1;exitDx=0;exitDy=0;entryX=0.342;entryY=1.009;entryDx=0;entryDy=0;entryPerimeter=0;shadow=0;dashed=1;strokeColor=#00CC00;strokeWidth=6;fontFamily=Comic Sans MS;fontSize=20;fontColor=#000000;startArrow=classic;startFill=1;endArrow=classic;endFill=1;targetPerimeterSpacing=1;" parent="Gj4-7rek51OEj5r49d8h-6" edge="1">
                    <mxGeometry relative="1" as="geometry">
                        <Array as="points">
                            <mxPoint x="390" y="-90"/>
                            <mxPoint x="495" y="-15"/>
                        </Array>
                        <mxPoint x="303.75" y="-270" as="sourcePoint"/>
                        <mxPoint x="612.9900000000002" y="-268.2449999999999" as="targetPoint"/>
                    </mxGeometry>
                </mxCell>
                <mxCell id="w_cdEdvwimH1wiW6k2DB-0" style="orthogonalLoop=1;jettySize=auto;html=1;exitX=0.25;exitY=1;exitDx=0;exitDy=0;entryX=0.25;entryY=0;entryDx=0;entryDy=0;strokeColor=#00CC00;strokeWidth=6;fontFamily=Comic Sans MS;fontSize=20;fontColor=#000000;curved=1;sketch=0;shadow=0;dashed=1;startArrow=classic;startFill=1;endFill=1;targetPerimeterSpacing=1;" parent="Gj4-7rek51OEj5r49d8h-6" source="0Zcb1wvKVoteUL0pYanl-39" target="0Zcb1wvKVoteUL0pYanl-30" edge="1">
                    <mxGeometry relative="1" as="geometry">
                        <Array as="points">
                            <mxPoint x="345" y="345"/>
                        </Array>
                    </mxGeometry>
                </mxCell>
                <mxCell id="mq8fEUFOC8pdxFk_0g2d-2" style="edgeStyle=none;curved=1;orthogonalLoop=1;jettySize=auto;html=1;exitX=0.75;exitY=1;exitDx=0;exitDy=0;entryX=0.468;entryY=-0.057;entryDx=0;entryDy=0;entryPerimeter=0;strokeColor=#00CC00;strokeWidth=6;fontFamily=Comic Sans MS;fontSize=20;fontColor=#000000;sketch=0;shadow=0;dashed=1;startArrow=classic;startFill=1;endFill=1;targetPerimeterSpacing=1;" parent="Gj4-7rek51OEj5r49d8h-6" source="0Zcb1wvKVoteUL0pYanl-38" target="0Zcb1wvKVoteUL0pYanl-18" edge="1">
                    <mxGeometry relative="1" as="geometry">
                        <Array as="points">
                            <mxPoint x="450" y="180"/>
                        </Array>
                    </mxGeometry>
                </mxCell>
                <mxCell id="36" value="&lt;span style=&quot;color: rgba(0, 0, 0, 0); font-family: monospace; font-size: 0px; text-align: start;&quot;&gt;%3CmxGraphModel%3E%3Croot%3E%3CmxCell%20id%3D%220%22%2F%3E%3CmxCell%20id%3D%221%22%20parent%3D%220%22%2F%3E%3CmxCell%20id%3D%222%22%20value%3D%22%26lt%3Bb%26gt%3BExR%26lt%3B%2Fb%26gt%3B%22%20style%3D%22edgeLabel%3Bhtml%3D1%3Balign%3Dcenter%3BverticalAlign%3Dmiddle%3Bresizable%3D0%3Bpoints%3D%5B%5D%3BfontSize%3D30%3BfontFamily%3DComic%20Sans%20MS%3B%22%20vertex%3D%221%22%20connectable%3D%220%22%20parent%3D%221%22%3E%3CmxGeometry%20x%3D%22576.6726598232126%22%20y%3D%22462.97674972918594%22%20as%3D%22geometry%22%2F%3E%3C%2FmxCell%3E%3CUserObject%20label%3D%22%22%20tags%3D%22%22%20id%3D%223%22%3E%3CmxCell%20style%3D%22aspect%3Dfixed%3Bhtml%3D1%3Bpoints%3D%5B%5D%3Balign%3Dcenter%3Bimage%3BfontSize%3D12%3Bimage%3Dimg%2Flib%2Fazure2%2Fnetworking%2FExpressRoute_Circuits.svg%3Brounded%3D0%3Bglass%3D0%3BlabelBackgroundColor%3Ddefault%3BfillStyle%3Dauto%3BstrokeColor%3D%23000000%3BstrokeWidth%3D4%3BfontFamily%3DComic%20Sans%20MS%3BfontColor%3D%23000000%3BfillColor%3Dnone%3BgradientColor%3Dnone%3Bopacity%3D70%3Bsketch%3D1%3BcurveFitting%3D1%3Bjiggle%3D2%3B%22%20vertex%3D%221%22%20parent%3D%221%22%3E%3CmxGeometry%20x%3D%22549%22%20y%3D%22485%22%20width%3D%2270%22%20height%3D%2264%22%20as%3D%22geometry%22%2F%3E%3C%2FmxCell%3E%3C%2FUserObject%3E%3CmxCell%20id%3D%224%22%20value%3D%22%22%20style%3D%22image%3Bhtml%3D1%3Bimage%3Dimg%2Flib%2Fclip_art%2Fnetworking%2FRouter_Icon_128x128.png%3BlabelBackgroundColor%3D%23FFFF66%3BfontFamily%3DComic%20Sans%20MS%3BfontSize%3D30%3BfontColor%3D%23000000%3B%22%20vertex%3D%221%22%20parent%3D%221%22%3E%3CmxGeometry%20x%3D%22476%22%20y%3D%22595.9300000000001%22%20width%3D%2280%22%20height%3D%2273.58%22%20as%3D%22geometry%22%2F%3E%3C%2FmxCell%3E%3CmxCell%20id%3D%225%22%20style%3D%22rounded%3D0%3Bsketch%3D1%3BhachureGap%3D4%3Bjiggle%3D2%3BcurveFitting%3D1%3BorthogonalLoop%3D1%3BjettySize%3Dauto%3Bhtml%3D1%3BexitX%3D0.25%3BexitY%3D1%3BexitDx%3D0%3BexitDy%3D0%3BentryX%3D0.206%3BentryY%3D0.018%3BentryDx%3D0%3BentryDy%3D0%3BentryPerimeter%3D0%3BstrokeColor%3D%233399FF%3BfontFamily%3DComic%20Sans%20MS%3BfontSize%3D25%3BendArrow%3Ddiamond%3BstrokeWidth%3D5%3BstartArrow%3Ddiamond%3BstartFill%3D1%3BendFill%3D1%3BdisableMultiStroke%3D1%3B%22%20edge%3D%221%22%20parent%3D%221%22%3E%3CmxGeometry%20relative%3D%221%22%20as%3D%22geometry%22%3E%3CmxPoint%20x%3D%22543%22%20y%3D%22395%22%20as%3D%22sourcePoint%22%2F%3E%3CmxPoint%20x%3D%22541.902%22%20y%3D%22582.3800000000001%22%20as%3D%22targetPoint%22%2F%3E%3C%2FmxGeometry%3E%3C%2FmxCell%3E%3CmxCell%20id%3D%226%22%20style%3D%22rounded%3D0%3Bsketch%3D1%3BhachureGap%3D4%3Bjiggle%3D2%3BcurveFitting%3D1%3BorthogonalLoop%3D1%3BjettySize%3Dauto%3Bhtml%3D1%3BexitX%3D0.25%3BexitY%3D1%3BexitDx%3D0%3BexitDy%3D0%3BentryX%3D0.206%3BentryY%3D0.018%3BentryDx%3D0%3BentryDy%3D0%3BentryPerimeter%3D0%3BstrokeColor%3D%233399FF%3BfontFamily%3DComic%20Sans%20MS%3BfontSize%3D25%3BendArrow%3Ddiamond%3BstrokeWidth%3D5%3BstartArrow%3Ddiamond%3BstartFill%3D1%3BendFill%3D1%3BdisableMultiStroke%3D1%3B%22%20edge%3D%221%22%20parent%3D%221%22%3E%3CmxGeometry%20relative%3D%221%22%20as%3D%22geometry%22%3E%3CmxPoint%20x%3D%22465%22%20y%3D%22395%22%20as%3D%22sourcePoint%22%2F%3E%3CmxPoint%20x%3D%22463.90200000000004%22%20y%3D%22582.3800000000001%22%20as%3D%22targetPoint%22%2F%3E%3C%2FmxGeometry%3E%3C%2FmxCell%3E%3C%2Froot%3E%3C%2FmxGraphModel%3E&lt;/span&gt;" style="text;html=1;align=center;verticalAlign=middle;resizable=0;points=[];autosize=1;strokeColor=none;fillColor=none;fontSize=20;fontFamily=Architects Daughter;sketch=1;hachureGap=4;jiggle=2;curveFitting=1;fontSource=https%3A%2F%2Ffonts.googleapis.com%2Fcss%3Ffamily%3DArchitects%2BDaughter;" parent="Gj4-7rek51OEj5r49d8h-6" vertex="1">
                    <mxGeometry x="1416" y="1038" width="30" height="45" as="geometry"/>
                </mxCell>
                <mxCell id="37" value="&lt;font style=&quot;font-size: 45px;&quot;&gt;&lt;b&gt;Scenario-1&amp;nbsp; Default vWAN multi-region &lt;br&gt;&lt;ol&gt;&lt;li&gt;&lt;font style=&quot;font-size: 45px;&quot;&gt;&lt;b&gt;ANY to ANY Connectivity&lt;/b&gt;&lt;/font&gt;&lt;/li&gt;&lt;li&gt;&lt;font style=&quot;font-size: 45px;&quot;&gt;&lt;b&gt;Inter-hub Connectivity over Inter-hub peering&lt;/b&gt;&lt;/font&gt;&lt;/li&gt;&lt;li&gt;Internet using default outbound NAT&lt;/li&gt;&lt;/ol&gt;&lt;/b&gt;&lt;/font&gt;" style="text;html=1;align=left;verticalAlign=middle;resizable=0;points=[];autosize=1;strokeColor=none;fillColor=none;fontSize=20;fontFamily=Architects Daughter;sketch=1;hachureGap=4;jiggle=2;curveFitting=1;fontSource=https%3A%2F%2Ffonts.googleapis.com%2Fcss%3Ffamily%3DArchitects%2BDaughter;" parent="Gj4-7rek51OEj5r49d8h-6" vertex="1">
                    <mxGeometry x="1170" y="1020" width="1005" height="345" as="geometry"/>
                </mxCell>
                <mxCell id="38" style="edgeStyle=none;sketch=1;hachureGap=4;jiggle=2;curveFitting=1;html=1;exitX=1;exitY=0.5;exitDx=0;exitDy=0;entryX=0.366;entryY=0.833;entryDx=0;entryDy=0;entryPerimeter=0;fontFamily=Architects Daughter;fontSource=https%3A%2F%2Ffonts.googleapis.com%2Fcss%3Ffamily%3DArchitects%2BDaughter;fontSize=45;curved=1;strokeColor=#0000FF;dashed=1;strokeWidth=5;" parent="Gj4-7rek51OEj5r49d8h-6" source="0Zcb1wvKVoteUL0pYanl-38" target="AaTsj4VFo2ENV-WCoRB4-0" edge="1">
                    <mxGeometry relative="1" as="geometry">
                        <Array as="points">
                            <mxPoint x="1119" y="-390"/>
                        </Array>
                    </mxGeometry>
                </mxCell>
                <mxCell id="39" value="&lt;font color=&quot;#0000ff&quot;&gt;Outbound&lt;/font&gt;" style="edgeLabel;html=1;align=center;verticalAlign=middle;resizable=0;points=[];fontSize=45;fontFamily=Architects Daughter;" parent="38" vertex="1" connectable="0">
                    <mxGeometry x="0.3923" y="19" relative="1" as="geometry">
                        <mxPoint y="-1" as="offset"/>
                    </mxGeometry>
                </mxCell>
                <mxCell id="mq8fEUFOC8pdxFk_0g2d-10" style="edgeStyle=none;curved=1;sketch=0;jumpStyle=none;jumpSize=2;orthogonalLoop=1;jettySize=auto;html=1;exitX=0.75;exitY=0;exitDx=0;exitDy=0;entryX=0.126;entryY=0.002;entryDx=0;entryDy=0;entryPerimeter=0;shadow=0;dashed=1;strokeColor=#00CC00;strokeWidth=6;fontFamily=Comic Sans MS;fontSize=20;fontColor=#000000;startArrow=classic;startFill=1;endArrow=classic;endFill=1;targetPerimeterSpacing=1;" parent="Gj4-7rek51OEj5r49d8h-6" edge="1">
                    <mxGeometry relative="1" as="geometry">
                        <Array as="points">
                            <mxPoint x="570" y="-15"/>
                        </Array>
                        <mxPoint x="453.74999999999955" y="630" as="sourcePoint"/>
                        <mxPoint x="739.1400000000003" y="630.7200000000003" as="targetPoint"/>
                    </mxGeometry>
                </mxCell>
                <mxCell id="5" value="Default-Flows-region-2" parent="0Zcb1wvKVoteUL0pYanl-0"/>
                <mxCell id="Gj4-7rek51OEj5r49d8h-15" style="edgeStyle=none;curved=1;sketch=0;jumpStyle=none;jumpSize=2;orthogonalLoop=1;jettySize=auto;html=1;exitX=0.25;exitY=0;exitDx=0;exitDy=0;entryX=0.222;entryY=1.009;entryDx=0;entryDy=0;entryPerimeter=0;shadow=0;dashed=1;strokeColor=#00CC00;strokeWidth=6;fontFamily=Comic Sans MS;fontSize=20;fontColor=#000000;startArrow=classic;startFill=1;endArrow=classic;endFill=1;targetPerimeterSpacing=1;fontStyle=1" parent="5" edge="1">
                    <mxGeometry relative="1" as="geometry">
                        <Array as="points">
                            <mxPoint x="2715" y="270"/>
                        </Array>
                        <mxPoint x="1886.25" y="615" as="sourcePoint"/>
                        <mxPoint x="2521.59" y="-283.2449999999999" as="targetPoint"/>
                    </mxGeometry>
                </mxCell>
                <mxCell id="Gj4-7rek51OEj5r49d8h-20" style="edgeStyle=none;curved=1;sketch=0;jumpStyle=none;jumpSize=2;orthogonalLoop=1;jettySize=auto;html=1;exitX=0.75;exitY=1;exitDx=0;exitDy=0;entryX=0.342;entryY=1.009;entryDx=0;entryDy=0;entryPerimeter=0;shadow=0;dashed=1;strokeColor=#00CC00;strokeWidth=6;fontFamily=Comic Sans MS;fontSize=20;fontColor=#000000;startArrow=classic;startFill=1;endArrow=classic;endFill=1;targetPerimeterSpacing=1;fontStyle=1" parent="5" edge="1">
                    <mxGeometry relative="1" as="geometry">
                        <Array as="points">
                            <mxPoint x="2790" y="-105"/>
                            <mxPoint x="2895" y="-30"/>
                        </Array>
                        <mxPoint x="2703.75" y="-285" as="sourcePoint"/>
                        <mxPoint x="3012.99" y="-283.2449999999999" as="targetPoint"/>
                    </mxGeometry>
                </mxCell>
                <mxCell id="Gj4-7rek51OEj5r49d8h-70" style="edgeStyle=none;curved=1;sketch=0;jumpStyle=none;jumpSize=2;orthogonalLoop=1;jettySize=auto;html=1;exitX=0.75;exitY=0;exitDx=0;exitDy=0;entryX=0.244;entryY=-0.016;entryDx=0;entryDy=0;entryPerimeter=0;shadow=0;dashed=1;strokeColor=#00CC00;strokeWidth=6;fontFamily=Comic Sans MS;fontSize=20;fontColor=#000000;startArrow=classic;startFill=1;endArrow=classic;endFill=1;targetPerimeterSpacing=1;fontStyle=1" parent="5" edge="1">
                    <mxGeometry relative="1" as="geometry">
                        <Array as="points">
                            <mxPoint x="2550.25" y="270"/>
                            <mxPoint x="2445.25" y="405"/>
                        </Array>
                        <mxPoint x="1999" y="615" as="sourcePoint"/>
                        <mxPoint x="2289.51" y="613.0799999999999" as="targetPoint"/>
                    </mxGeometry>
                </mxCell>
                <mxCell id="Gj4-7rek51OEj5r49d8h-17" style="edgeStyle=none;curved=1;sketch=0;jumpStyle=none;jumpSize=2;orthogonalLoop=1;jettySize=auto;html=1;exitX=0.75;exitY=0;exitDx=0;exitDy=0;entryX=0.25;entryY=0;entryDx=0;entryDy=0;shadow=0;dashed=1;strokeColor=#00CC00;strokeWidth=6;fontFamily=Comic Sans MS;fontSize=20;fontColor=#000000;startArrow=classic;startFill=1;endArrow=none;endFill=0;targetPerimeterSpacing=1;fontStyle=1" parent="5" edge="1">
                    <mxGeometry relative="1" as="geometry">
                        <Array as="points">
                            <mxPoint x="2805" y="-15"/>
                        </Array>
                        <mxPoint x="2448.75" y="615" as="sourcePoint"/>
                        <mxPoint x="2711.25" y="615" as="targetPoint"/>
                    </mxGeometry>
                </mxCell>
                <mxCell id="Gj4-7rek51OEj5r49d8h-18" style="edgeStyle=none;curved=1;sketch=0;jumpStyle=none;jumpSize=2;orthogonalLoop=1;jettySize=auto;html=1;exitX=0.75;exitY=0;exitDx=0;exitDy=0;entryX=0.126;entryY=0.002;entryDx=0;entryDy=0;entryPerimeter=0;shadow=0;dashed=1;strokeColor=#00CC00;strokeWidth=6;fontFamily=Comic Sans MS;fontSize=20;fontColor=#000000;startArrow=none;startFill=0;endArrow=classic;endFill=1;targetPerimeterSpacing=1;fontStyle=1" parent="5" edge="1">
                    <mxGeometry relative="1" as="geometry">
                        <Array as="points">
                            <mxPoint x="2970" y="-30"/>
                        </Array>
                        <mxPoint x="2853.75" y="615" as="sourcePoint"/>
                        <mxPoint x="3139.1400000000003" y="615.7200000000003" as="targetPoint"/>
                    </mxGeometry>
                </mxCell>
                <mxCell id="Gj4-7rek51OEj5r49d8h-19" style="edgeStyle=none;curved=1;sketch=0;jumpStyle=none;jumpSize=2;orthogonalLoop=1;jettySize=auto;html=1;exitX=0.75;exitY=0;exitDx=0;exitDy=0;entryX=0.105;entryY=-0.005;entryDx=0;entryDy=0;entryPerimeter=0;shadow=0;dashed=1;strokeColor=#00CC00;strokeWidth=6;fontFamily=Comic Sans MS;fontSize=20;fontColor=#000000;startArrow=classic;startFill=1;endArrow=classic;endFill=1;targetPerimeterSpacing=1;fontStyle=1" parent="5" edge="1">
                    <mxGeometry relative="1" as="geometry">
                        <Array as="points">
                            <mxPoint x="3270" y="435"/>
                        </Array>
                        <mxPoint x="3382.5" y="615" as="sourcePoint"/>
                        <mxPoint x="3595.95" y="613.1999999999998" as="targetPoint"/>
                    </mxGeometry>
                </mxCell>
                <mxCell id="44" style="edgeStyle=none;curved=1;sketch=1;hachureGap=4;jiggle=2;curveFitting=1;html=1;dashed=1;strokeColor=#0000FF;strokeWidth=5;fontFamily=Architects Daughter;fontSource=https%3A%2F%2Ffonts.googleapis.com%2Fcss%3Ffamily%3DArchitects%2BDaughter;fontSize=45;fontColor=#0000FF;" parent="5" target="Gj4-7rek51OEj5r49d8h-62" edge="1">
                    <mxGeometry relative="1" as="geometry">
                        <mxPoint x="3225" y="-375" as="sourcePoint"/>
                        <Array as="points">
                            <mxPoint x="3465" y="-360"/>
                        </Array>
                    </mxGeometry>
                </mxCell>
                <mxCell id="46" value="Outbound" style="edgeLabel;html=1;align=center;verticalAlign=middle;resizable=0;points=[];fontSize=45;fontFamily=Architects Daughter;fontColor=#0000FF;" parent="44" vertex="1" connectable="0">
                    <mxGeometry x="-0.0898" y="15" relative="1" as="geometry">
                        <mxPoint y="-34" as="offset"/>
                    </mxGeometry>
                </mxCell>
                <mxCell id="3" value="Inter-hub-flows" style="" parent="0Zcb1wvKVoteUL0pYanl-0" visible="0"/>
                <mxCell id="Gj4-7rek51OEj5r49d8h-65" style="edgeStyle=none;curved=1;orthogonalLoop=1;jettySize=auto;html=1;exitX=0.75;exitY=1;exitDx=0;exitDy=0;entryX=0.25;entryY=1;entryDx=0;entryDy=0;strokeColor=#0000FF;strokeWidth=6;fontFamily=Comic Sans MS;fontSize=20;fontColor=#000000;startArrow=classic;startFill=1;endArrow=classic;endFill=1;sketch=0;shadow=0;dashed=1;targetPerimeterSpacing=1;" parent="3" source="0Zcb1wvKVoteUL0pYanl-38" target="Gj4-7rek51OEj5r49d8h-45" edge="1">
                    <mxGeometry relative="1" as="geometry">
                        <Array as="points">
                            <mxPoint x="600" y="90"/>
                            <mxPoint x="1635" y="-45"/>
                            <mxPoint x="2640" y="135"/>
                        </Array>
                    </mxGeometry>
                </mxCell>
                <mxCell id="Gj4-7rek51OEj5r49d8h-64" style="edgeStyle=none;curved=1;orthogonalLoop=1;jettySize=auto;html=1;exitX=0.75;exitY=0;exitDx=0;exitDy=0;entryX=0.111;entryY=1.159;entryDx=0;entryDy=0;strokeColor=#0000FF;strokeWidth=6;fontFamily=Comic Sans MS;fontSize=20;fontColor=#000000;startArrow=classic;startFill=1;endArrow=classic;endFill=1;sketch=0;shadow=0;dashed=1;targetPerimeterSpacing=1;entryPerimeter=0;" parent="3" source="0Zcb1wvKVoteUL0pYanl-13" target="Gj4-7rek51OEj5r49d8h-44" edge="1">
                    <mxGeometry relative="1" as="geometry">
                        <Array as="points">
                            <mxPoint x="270" y="180"/>
                            <mxPoint x="1170" y="90"/>
                            <mxPoint x="2685" y="195"/>
                        </Array>
                    </mxGeometry>
                </mxCell>
                <mxCell id="Gj4-7rek51OEj5r49d8h-71" style="edgeStyle=none;curved=1;orthogonalLoop=1;jettySize=auto;html=1;exitX=0.75;exitY=0;exitDx=0;exitDy=0;entryX=0.5;entryY=1;entryDx=0;entryDy=0;strokeColor=#0000FF;strokeWidth=6;fontFamily=Comic Sans MS;fontSize=20;fontColor=#000000;startArrow=classic;startFill=1;endArrow=classic;endFill=1;sketch=0;shadow=0;dashed=1;targetPerimeterSpacing=1;" parent="3" target="0Zcb1wvKVoteUL0pYanl-39" edge="1">
                    <mxGeometry relative="1" as="geometry">
                        <Array as="points">
                            <mxPoint x="2985" y="-67"/>
                            <mxPoint x="1095" y="548"/>
                        </Array>
                        <mxPoint x="2433.75" y="698" as="sourcePoint"/>
                        <mxPoint x="288.74999999999955" y="-187" as="targetPoint"/>
                    </mxGeometry>
                </mxCell>
                <mxCell id="4" value="Scenario-2:Secured-vwan-hub-NS" parent="0Zcb1wvKVoteUL0pYanl-0" visible="0"/>
                <mxCell id="Gj4-7rek51OEj5r49d8h-74" style="edgeStyle=none;curved=1;sketch=0;hachureGap=1;jumpStyle=none;jumpSize=2;orthogonalLoop=1;jettySize=auto;html=1;entryX=0.093;entryY=0.595;entryDx=0;entryDy=0;entryPerimeter=0;shadow=0;strokeColor=#FF00FF;strokeWidth=6;fontFamily=Comic Sans MS;fontSize=20;fontColor=#000000;startArrow=none;startFill=0;endArrow=classic;endFill=1;targetPerimeterSpacing=1;fillColor=#CCE5FF;glass=0;labelBorderColor=#FF0000;comic=0;fillStyle=auto;gradientColor=none;curveFitting=1;jiggle=1;disableMultiStroke=1;disableMultiStrokeFill=1;fillWeight=2;dashed=1;exitX=0.346;exitY=0.955;exitDx=0;exitDy=0;exitPerimeter=0;" parent="4" target="Gj4-7rek51OEj5r49d8h-62" edge="1">
                    <mxGeometry relative="1" as="geometry">
                        <Array as="points">
                            <mxPoint x="2640" y="345"/>
                        </Array>
                        <mxPoint x="2903.5280000000002" y="-302.6999999999998" as="sourcePoint"/>
                        <mxPoint x="3271.9799999999996" y="-308.0250000000001" as="targetPoint"/>
                    </mxGeometry>
                </mxCell>
                <mxCell id="Gj4-7rek51OEj5r49d8h-75" style="edgeStyle=none;curved=1;sketch=0;hachureGap=1;jumpStyle=none;jumpSize=2;orthogonalLoop=1;jettySize=auto;html=1;exitX=0.75;exitY=0;exitDx=0;exitDy=0;entryX=0.237;entryY=0.831;entryDx=0;entryDy=0;entryPerimeter=0;shadow=0;strokeColor=#FF00FF;strokeWidth=6;fontFamily=Comic Sans MS;fontSize=20;fontColor=#000000;startArrow=none;startFill=0;endArrow=classic;endFill=1;targetPerimeterSpacing=1;fillColor=#CCE5FF;glass=0;labelBorderColor=#FF0000;comic=0;fillStyle=auto;gradientColor=none;curveFitting=1;jiggle=1;disableMultiStroke=1;disableMultiStrokeFill=1;fillWeight=2;dashed=1;" parent="4" target="Gj4-7rek51OEj5r49d8h-62" edge="1">
                    <mxGeometry relative="1" as="geometry">
                        <Array as="points">
                            <mxPoint x="2760" y="-15"/>
                        </Array>
                        <mxPoint x="2778.75" y="645" as="sourcePoint"/>
                        <mxPoint x="3295.2000000000007" y="-232.94999999999982" as="targetPoint"/>
                    </mxGeometry>
                </mxCell>
                <mxCell id="Gj4-7rek51OEj5r49d8h-73" style="edgeStyle=none;curved=1;sketch=0;hachureGap=1;jumpStyle=none;jumpSize=2;orthogonalLoop=1;jettySize=auto;html=1;exitX=0.75;exitY=0;exitDx=0;exitDy=0;entryX=0.432;entryY=0.995;entryDx=0;entryDy=0;entryPerimeter=0;shadow=0;strokeColor=#FF00FF;strokeWidth=6;fontFamily=Comic Sans MS;fontSize=20;fontColor=#000000;startArrow=none;startFill=0;endArrow=classic;endFill=1;targetPerimeterSpacing=1;fillColor=#CCE5FF;rounded=1;glass=0;labelBackgroundColor=default;labelBorderColor=#FF0000;comic=0;fillStyle=auto;gradientColor=none;curveFitting=1;jiggle=1;disableMultiStroke=1;disableMultiStrokeFill=1;fillWeight=2;dashed=1;" parent="4" target="Gj4-7rek51OEj5r49d8h-62" edge="1">
                    <mxGeometry relative="1" as="geometry">
                        <Array as="points">
                            <mxPoint x="2325" y="60"/>
                        </Array>
                        <mxPoint x="3772.5" y="645" as="sourcePoint"/>
                        <mxPoint x="3566.2800000000007" y="-200.11499999999978" as="targetPoint"/>
                    </mxGeometry>
                </mxCell>
                <mxCell id="7" style="edgeStyle=none;sketch=0;hachureGap=1;jiggle=1;curveFitting=1;html=1;exitX=0.75;exitY=1;exitDx=0;exitDy=0;entryX=0.102;entryY=0.382;entryDx=0;entryDy=0;entryPerimeter=0;fontFamily=Comic Sans MS;fontSource=https%3A%2F%2Ffonts.googleapis.com%2Fcss%3Ffamily%3DArchitects%2BDaughter;fontSize=20;startArrow=none;startFill=0;endArrow=classic;endFill=1;curved=1;strokeColor=#FF00FF;fontColor=#000000;shadow=0;strokeWidth=6;targetPerimeterSpacing=1;fillColor=#CCE5FF;glass=0;labelBorderColor=#FF0000;comic=0;fillStyle=auto;gradientColor=none;disableMultiStroke=1;disableMultiStrokeFill=1;fillWeight=2;dashed=1;" parent="4" source="0Zcb1wvKVoteUL0pYanl-39" target="AaTsj4VFo2ENV-WCoRB4-0" edge="1">
                    <mxGeometry relative="1" as="geometry">
                        <Array as="points">
                            <mxPoint x="285" y="270"/>
                        </Array>
                    </mxGeometry>
                </mxCell>
                <mxCell id="8" style="edgeStyle=none;curved=1;sketch=0;hachureGap=1;jiggle=1;curveFitting=1;html=1;exitX=0.091;exitY=-0.034;exitDx=0;exitDy=0;entryX=0.372;entryY=0.888;entryDx=0;entryDy=0;entryPerimeter=0;fontFamily=Comic Sans MS;fontSource=https%3A%2F%2Ffonts.googleapis.com%2Fcss%3Ffamily%3DArchitects%2BDaughter;fontSize=20;startArrow=none;startFill=0;endArrow=classic;endFill=1;strokeColor=#FF00FF;fontColor=#000000;shadow=0;strokeWidth=6;targetPerimeterSpacing=1;fillColor=#CCE5FF;glass=0;labelBorderColor=#FF0000;comic=0;fillStyle=auto;gradientColor=none;disableMultiStroke=1;disableMultiStrokeFill=1;fillWeight=2;dashed=1;exitPerimeter=0;" parent="4" source="0Zcb1wvKVoteUL0pYanl-13" target="AaTsj4VFo2ENV-WCoRB4-0" edge="1">
                    <mxGeometry relative="1" as="geometry">
                        <Array as="points">
                            <mxPoint x="105" y="45"/>
                        </Array>
                    </mxGeometry>
                </mxCell>
                <mxCell id="9" style="edgeStyle=none;curved=1;sketch=0;hachureGap=1;jiggle=1;curveFitting=1;html=1;exitX=0.637;exitY=0.011;exitDx=0;exitDy=0;exitPerimeter=0;entryX=0.13;entryY=0.77;entryDx=0;entryDy=0;entryPerimeter=0;fontFamily=Comic Sans MS;fontSource=https%3A%2F%2Ffonts.googleapis.com%2Fcss%3Ffamily%3DArchitects%2BDaughter;fontSize=20;startArrow=none;startFill=0;endArrow=classic;endFill=1;strokeColor=#FF00FF;fontColor=#000000;shadow=0;strokeWidth=6;fillColor=#CCE5FF;glass=0;labelBorderColor=#FF0000;comic=0;fillStyle=auto;gradientColor=none;disableMultiStroke=1;disableMultiStrokeFill=1;fillWeight=2;dashed=1;sourcePerimeterSpacing=1;" parent="4" source="0Zcb1wvKVoteUL0pYanl-25" target="AaTsj4VFo2ENV-WCoRB4-0" edge="1">
                    <mxGeometry relative="1" as="geometry">
                        <Array as="points">
                            <mxPoint x="330" y="90"/>
                        </Array>
                    </mxGeometry>
                </mxCell>
                <mxCell id="15" value="" style="aspect=fixed;html=1;points=[];align=center;image;fontSize=12;image=img/lib/azure2/networking/Firewalls.svg;sketch=1;hachureGap=4;jiggle=2;curveFitting=1;fontFamily=Architects Daughter;fontSource=https%3A%2F%2Ffonts.googleapis.com%2Fcss%3Ffamily%3DArchitects%2BDaughter;" parent="4" vertex="1">
                    <mxGeometry x="270" width="71" height="60" as="geometry"/>
                </mxCell>
                <mxCell id="16" value="" style="aspect=fixed;html=1;points=[];align=center;image;fontSize=12;image=img/lib/azure2/networking/Firewalls.svg;sketch=1;hachureGap=4;jiggle=2;curveFitting=1;fontFamily=Architects Daughter;fontSource=https%3A%2F%2Ffonts.googleapis.com%2Fcss%3Ffamily%3DArchitects%2BDaughter;" parent="4" vertex="1">
                    <mxGeometry x="2685" y="-15" width="71" height="60" as="geometry"/>
                </mxCell>
                <mxCell id="30" value="" style="endArrow=classic;html=1;hachureGap=4;strokeColor=#FF0000;strokeWidth=5;fontFamily=Architects Daughter;fontSource=https%3A%2F%2Ffonts.googleapis.com%2Fcss%3Ffamily%3DArchitects%2BDaughter;fontSize=30;fontColor=#FF0000;curved=1;disableMultiStroke=1;dashed=1;endFill=1;flowAnimation=1;" parent="4" edge="1">
                    <mxGeometry width="50" height="50" relative="1" as="geometry">
                        <mxPoint x="3270" y="285" as="sourcePoint"/>
                        <mxPoint x="3375" y="360" as="targetPoint"/>
                    </mxGeometry>
                </mxCell>
                <mxCell id="33" value="&lt;font style=&quot;font-size: 35px;&quot;&gt;&lt;b&gt;0/0&lt;/b&gt;&lt;/font&gt;" style="text;html=1;align=center;verticalAlign=middle;resizable=0;points=[];autosize=1;strokeColor=none;fillColor=none;fontSize=30;fontFamily=Architects Daughter;fontColor=#FF0000;sketch=1;hachureGap=4;jiggle=2;curveFitting=1;fontSource=https%3A%2F%2Ffonts.googleapis.com%2Fcss%3Ffamily%3DArchitects%2BDaughter;" parent="4" vertex="1">
                    <mxGeometry x="3310" y="270" width="90" height="60" as="geometry"/>
                </mxCell>
                <mxCell id="29" value="" style="endArrow=classic;html=1;hachureGap=4;strokeColor=#FF0000;strokeWidth=5;fontFamily=Architects Daughter;fontSource=https%3A%2F%2Ffonts.googleapis.com%2Fcss%3Ffamily%3DArchitects%2BDaughter;fontSize=30;fontColor=#FF0000;curved=1;disableMultiStroke=1;dashed=1;flowAnimation=1;endFill=1;" parent="4" edge="1">
                    <mxGeometry width="50" height="50" relative="1" as="geometry">
                        <mxPoint x="850" y="285" as="sourcePoint"/>
                        <mxPoint x="960" y="375" as="targetPoint"/>
                    </mxGeometry>
                </mxCell>
                <mxCell id="32" value="&lt;font style=&quot;font-size: 35px;&quot;&gt;&lt;b&gt;0/0&lt;/b&gt;&lt;/font&gt;" style="text;html=1;align=center;verticalAlign=middle;resizable=0;points=[];autosize=1;strokeColor=none;fillColor=none;fontSize=30;fontFamily=Architects Daughter;fontColor=#FF0000;sketch=1;hachureGap=4;jiggle=2;curveFitting=1;fontSource=https%3A%2F%2Ffonts.googleapis.com%2Fcss%3Ffamily%3DArchitects%2BDaughter;" parent="4" vertex="1">
                    <mxGeometry x="885" y="270" width="90" height="60" as="geometry"/>
                </mxCell>
                <mxCell id="47" value="&lt;font style=&quot;font-size: 45px;&quot;&gt;&lt;b&gt;Scenario-2&amp;nbsp; Secured vWAN multi-region &lt;br&gt;&lt;ol&gt;&lt;li&gt;&lt;font style=&quot;font-size: 45px;&quot;&gt;&lt;b&gt;&lt;font color=&quot;#ff00ff&quot;&gt;NS Via AzFW&amp;nbsp;&lt;/font&gt;&amp;nbsp;&lt;/b&gt;&lt;/font&gt;&lt;/li&gt;&lt;li&gt;&lt;font style=&quot;font-size: 45px;&quot;&gt;&lt;b&gt;AzFW advertize &lt;font color=&quot;#ff0000&quot;&gt;0/0&lt;/font&gt; to Branches&lt;/b&gt;&lt;/font&gt;&lt;/li&gt;&lt;li&gt;Spoke-vhub-vhub-remote spoke gets assymetric&lt;/li&gt;&lt;li&gt;&lt;font style=&quot;font-size: 45px;&quot;&gt;&lt;b&gt;ANY to ANY Connectivity&lt;/b&gt;&lt;/font&gt;&lt;/li&gt;&lt;li&gt;&lt;font style=&quot;font-size: 45px;&quot;&gt;&lt;b&gt;Inter-hub Connectivity over Inter-hub peering&lt;/b&gt;&lt;/font&gt;&lt;/li&gt;&lt;li&gt;Internet using default outbound NAT&lt;/li&gt;&lt;/ol&gt;&lt;/b&gt;&lt;/font&gt;" style="text;html=1;align=left;verticalAlign=middle;resizable=0;points=[];autosize=1;strokeColor=none;fillColor=none;fontSize=20;fontFamily=Architects Daughter;sketch=1;hachureGap=4;jiggle=2;curveFitting=1;fontSource=https%3A%2F%2Ffonts.googleapis.com%2Fcss%3Ffamily%3DArchitects%2BDaughter;" parent="4" vertex="1">
                    <mxGeometry x="1155" y="1100" width="1080" height="525" as="geometry"/>
                </mxCell>
                <mxCell id="18" value="Secured-vWAN-EW" parent="0Zcb1wvKVoteUL0pYanl-0" visible="0"/>
                <mxCell id="Gj4-7rek51OEj5r49d8h-125" style="edgeStyle=none;curved=1;orthogonalLoop=1;jettySize=auto;html=1;entryX=0.095;entryY=0.998;entryDx=0;entryDy=0;strokeColor=#FF3333;strokeWidth=6;fontFamily=Comic Sans MS;fontSize=20;fontColor=#000000;startArrow=classic;startFill=1;endArrow=classic;endFill=1;sketch=0;hachureGap=1;shadow=0;targetPerimeterSpacing=1;fillColor=#CCE5FF;glass=0;labelBorderColor=#FF0000;comic=0;fillStyle=auto;gradientColor=none;curveFitting=1;jiggle=1;disableMultiStroke=1;disableMultiStrokeFill=1;fillWeight=2;dashed=1;entryPerimeter=0;exitX=0.636;exitY=0.973;exitDx=0;exitDy=0;exitPerimeter=0;" parent="18" source="0Zcb1wvKVoteUL0pYanl-38" target="Gj4-7rek51OEj5r49d8h-45" edge="1">
                    <mxGeometry relative="1" as="geometry">
                        <Array as="points">
                            <mxPoint x="210" y="150"/>
                            <mxPoint x="1485" y="-60"/>
                            <mxPoint x="2490" y="135"/>
                            <mxPoint x="2580" y="-135"/>
                        </Array>
                        <mxPoint x="2456.25" y="-255" as="targetPoint"/>
                    </mxGeometry>
                </mxCell>
                <mxCell id="19" value="&lt;font color=&quot;#ff0000&quot; style=&quot;font-size: 30px;&quot;&gt;Spoke-to-spoke traffic gets assymetric&lt;/font&gt;" style="edgeLabel;html=1;align=center;verticalAlign=middle;resizable=0;points=[];fontSize=21;fontFamily=Architects Daughter;fontColor=#3399FF;" parent="Gj4-7rek51OEj5r49d8h-125" vertex="1" connectable="0">
                    <mxGeometry x="0.0332" y="-40" relative="1" as="geometry">
                        <mxPoint x="1" as="offset"/>
                    </mxGeometry>
                </mxCell>
                <mxCell id="25" style="edgeStyle=none;curved=1;sketch=0;hachureGap=1;jiggle=1;curveFitting=1;html=1;exitX=0.25;exitY=1;exitDx=0;exitDy=0;entryX=0.25;entryY=1;entryDx=0;entryDy=0;strokeColor=#FF3333;strokeWidth=6;fontFamily=Comic Sans MS;fontSource=https%3A%2F%2Ffonts.googleapis.com%2Fcss%3Ffamily%3DArchitects%2BDaughter;fontSize=20;fontColor=#000000;startArrow=classic;startFill=1;endArrow=classic;endFill=1;shadow=0;targetPerimeterSpacing=1;fillColor=#CCE5FF;glass=0;labelBorderColor=#FF0000;comic=0;fillStyle=auto;gradientColor=none;disableMultiStroke=1;disableMultiStrokeFill=1;fillWeight=2;dashed=1;" parent="18" source="0Zcb1wvKVoteUL0pYanl-39" target="0Zcb1wvKVoteUL0pYanl-38" edge="1">
                    <mxGeometry relative="1" as="geometry">
                        <Array as="points">
                            <mxPoint x="360" y="270"/>
                        </Array>
                    </mxGeometry>
                </mxCell>
                <mxCell id="0Zcb1wvKVoteUL0pYanl-5" value="Scenario-3:Internet Traffic (Routing-Intent)" style="" parent="0Zcb1wvKVoteUL0pYanl-0" visible="0"/>
                <mxCell id="AaTsj4VFo2ENV-WCoRB4-3" style="edgeStyle=none;curved=1;sketch=0;hachureGap=1;jumpStyle=none;jumpSize=2;orthogonalLoop=1;jettySize=auto;html=1;exitX=0.75;exitY=0;exitDx=0;exitDy=0;entryX=0.632;entryY=0.969;entryDx=0;entryDy=0;entryPerimeter=0;shadow=0;strokeColor=#FF00FF;strokeWidth=6;fontFamily=Comic Sans MS;fontSize=20;fontColor=#000000;startArrow=none;startFill=0;endArrow=classic;endFill=1;targetPerimeterSpacing=1;fillColor=#CCE5FF;rounded=1;glass=0;labelBackgroundColor=default;labelBorderColor=#FF0000;comic=0;fillStyle=auto;gradientColor=none;curveFitting=1;jiggle=1;disableMultiStroke=1;disableMultiStrokeFill=1;fillWeight=2;dashed=1;" parent="0Zcb1wvKVoteUL0pYanl-5" source="0Zcb1wvKVoteUL0pYanl-13" target="AaTsj4VFo2ENV-WCoRB4-0" edge="1">
                    <mxGeometry relative="1" as="geometry">
                        <Array as="points">
                            <mxPoint x="-90" y="30"/>
                        </Array>
                    </mxGeometry>
                </mxCell>
                <mxCell id="AaTsj4VFo2ENV-WCoRB4-4" style="edgeStyle=none;curved=1;sketch=0;hachureGap=1;jumpStyle=none;jumpSize=2;orthogonalLoop=1;jettySize=auto;html=1;entryX=0.087;entryY=0.315;entryDx=0;entryDy=0;entryPerimeter=0;shadow=0;strokeColor=#FF00FF;strokeWidth=6;fontFamily=Comic Sans MS;fontSize=20;fontColor=#000000;startArrow=none;startFill=0;endArrow=classic;endFill=1;targetPerimeterSpacing=1;fillColor=#CCE5FF;glass=0;labelBorderColor=#FF0000;comic=0;fillStyle=auto;gradientColor=none;curveFitting=1;jiggle=1;disableMultiStroke=1;disableMultiStrokeFill=1;fillWeight=2;dashed=1;exitX=0.346;exitY=0.955;exitDx=0;exitDy=0;exitPerimeter=0;" parent="0Zcb1wvKVoteUL0pYanl-5" source="0Zcb1wvKVoteUL0pYanl-53" target="AaTsj4VFo2ENV-WCoRB4-0" edge="1">
                    <mxGeometry relative="1" as="geometry">
                        <Array as="points">
                            <mxPoint x="300" y="315"/>
                        </Array>
                    </mxGeometry>
                </mxCell>
                <mxCell id="AaTsj4VFo2ENV-WCoRB4-5" style="edgeStyle=none;curved=1;sketch=0;hachureGap=1;jumpStyle=none;jumpSize=2;orthogonalLoop=1;jettySize=auto;html=1;exitX=0.75;exitY=0;exitDx=0;exitDy=0;entryX=0.13;entryY=0.77;entryDx=0;entryDy=0;entryPerimeter=0;shadow=0;strokeColor=#FF00FF;strokeWidth=6;fontFamily=Comic Sans MS;fontSize=20;fontColor=#000000;startArrow=none;startFill=0;endArrow=classic;endFill=1;targetPerimeterSpacing=1;fillColor=#CCE5FF;glass=0;labelBorderColor=#FF0000;comic=0;fillStyle=auto;gradientColor=none;curveFitting=1;jiggle=1;disableMultiStroke=1;disableMultiStrokeFill=1;fillWeight=2;dashed=1;" parent="0Zcb1wvKVoteUL0pYanl-5" source="0Zcb1wvKVoteUL0pYanl-25" target="AaTsj4VFo2ENV-WCoRB4-0" edge="1">
                    <mxGeometry relative="1" as="geometry">
                        <Array as="points">
                            <mxPoint x="450"/>
                        </Array>
                    </mxGeometry>
                </mxCell>
                <mxCell id="WOgvRqKAOGWv_vd_MUkP-0" value="" style="aspect=fixed;html=1;points=[];align=center;image;fontSize=12;image=img/lib/azure2/networking/Firewalls.svg;rounded=0;glass=0;labelBackgroundColor=#FFFF66;labelBorderColor=#FF0000;comic=0;sketch=1;jiggle=2;fillStyle=auto;curveFitting=1;sketchStyle=rough;strokeColor=#3399FF;strokeWidth=1;fontFamily=Comic Sans MS;fontColor=#000000;fillColor=#E6E6E6;gradientColor=none;" parent="0Zcb1wvKVoteUL0pYanl-5" vertex="1">
                    <mxGeometry x="425" width="71" height="60" as="geometry"/>
                </mxCell>
                <mxCell id="48" value="&lt;font style=&quot;font-size: 45px;&quot;&gt;&lt;b&gt;Scenario-3&amp;nbsp; Routing Intent&lt;br&gt;&lt;ol&gt;&lt;li&gt;&lt;font style=&quot;font-size: 45px;&quot;&gt;&lt;b&gt;Internet via AzFW (0/0 to branches)&lt;/b&gt;&lt;/font&gt;&lt;/li&gt;&lt;li&gt;-E-W via AzFW&lt;/li&gt;&lt;/ol&gt;&lt;/b&gt;&lt;/font&gt;" style="text;html=1;align=left;verticalAlign=middle;resizable=0;points=[];autosize=1;strokeColor=none;fillColor=none;fontSize=20;fontFamily=Architects Daughter;sketch=1;hachureGap=4;jiggle=2;curveFitting=1;fontSource=https%3A%2F%2Ffonts.googleapis.com%2Fcss%3Ffamily%3DArchitects%2BDaughter;" parent="0Zcb1wvKVoteUL0pYanl-5" vertex="1">
                    <mxGeometry x="1200" y="1080" width="840" height="285" as="geometry"/>
                </mxCell>
                <mxCell id="AaTsj4VFo2ENV-WCoRB4-2" value="Private-Traffic (Routing Intent)" parent="0Zcb1wvKVoteUL0pYanl-0" visible="0"/>
                <mxCell id="0Zcb1wvKVoteUL0pYanl-11" style="edgeStyle=none;curved=1;sketch=0;jumpStyle=none;jumpSize=2;orthogonalLoop=1;jettySize=auto;html=1;exitX=0.75;exitY=1;exitDx=0;exitDy=0;entryX=0.342;entryY=1.009;entryDx=0;entryDy=0;entryPerimeter=0;shadow=0;dashed=1;strokeColor=#FF8000;strokeWidth=6;fontFamily=Comic Sans MS;fontSize=20;fontColor=#000000;startArrow=classic;startFill=1;endArrow=classic;endFill=1;targetPerimeterSpacing=1;" parent="AaTsj4VFo2ENV-WCoRB4-2" source="0Zcb1wvKVoteUL0pYanl-39" target="0Zcb1wvKVoteUL0pYanl-38" edge="1">
                    <mxGeometry relative="1" as="geometry">
                        <Array as="points">
                            <mxPoint x="375" y="-105"/>
                            <mxPoint x="420" y="15"/>
                            <mxPoint x="480" y="-30"/>
                        </Array>
                    </mxGeometry>
                </mxCell>
                <mxCell id="AaTsj4VFo2ENV-WCoRB4-6" style="edgeStyle=none;curved=1;sketch=0;jumpStyle=none;jumpSize=2;orthogonalLoop=1;jettySize=auto;html=1;exitX=0.25;exitY=0;exitDx=0;exitDy=0;entryX=0.222;entryY=1.009;entryDx=0;entryDy=0;entryPerimeter=0;shadow=0;dashed=1;strokeColor=#FF8000;strokeWidth=6;fontFamily=Comic Sans MS;fontSize=20;fontColor=#000000;startArrow=classic;startFill=1;endArrow=classic;endFill=1;targetPerimeterSpacing=1;" parent="AaTsj4VFo2ENV-WCoRB4-2" edge="1">
                    <mxGeometry relative="1" as="geometry">
                        <mxPoint x="-528.75" y="615" as="sourcePoint"/>
                        <mxPoint x="106.59000000000015" y="-283.24500000000035" as="targetPoint"/>
                        <Array as="points">
                            <mxPoint x="225" y="255"/>
                            <mxPoint x="315" y="-30"/>
                        </Array>
                    </mxGeometry>
                </mxCell>
                <mxCell id="AaTsj4VFo2ENV-WCoRB4-7" style="edgeStyle=none;curved=1;sketch=0;jumpStyle=none;jumpSize=2;orthogonalLoop=1;jettySize=auto;html=1;exitX=0.75;exitY=0;exitDx=0;exitDy=0;entryX=0.244;entryY=-0.016;entryDx=0;entryDy=0;entryPerimeter=0;shadow=0;dashed=1;strokeColor=#0000CC;strokeWidth=6;fontFamily=Comic Sans MS;fontSize=20;fontColor=#000000;startArrow=classic;startFill=1;endArrow=classic;endFill=1;targetPerimeterSpacing=1;" parent="AaTsj4VFo2ENV-WCoRB4-2" edge="1">
                    <mxGeometry relative="1" as="geometry">
                        <mxPoint x="-386.25" y="615" as="sourcePoint"/>
                        <mxPoint x="-95.74000000000024" y="613.0799999999999" as="targetPoint"/>
                        <Array as="points">
                            <mxPoint x="75" y="360"/>
                            <mxPoint x="60" y="405"/>
                        </Array>
                    </mxGeometry>
                </mxCell>
                <mxCell id="AaTsj4VFo2ENV-WCoRB4-8" style="edgeStyle=none;curved=1;sketch=0;jumpStyle=none;jumpSize=2;orthogonalLoop=1;jettySize=auto;html=1;exitX=0.75;exitY=0;exitDx=0;exitDy=0;entryX=0.25;entryY=0;entryDx=0;entryDy=0;shadow=0;dashed=1;strokeColor=#FF8000;strokeWidth=6;fontFamily=Comic Sans MS;fontSize=20;fontColor=#000000;startArrow=classic;startFill=1;endArrow=classic;endFill=1;targetPerimeterSpacing=1;" parent="AaTsj4VFo2ENV-WCoRB4-2" edge="1">
                    <mxGeometry relative="1" as="geometry">
                        <mxPoint x="33.75" y="615" as="sourcePoint"/>
                        <mxPoint x="296.25" y="615" as="targetPoint"/>
                        <Array as="points">
                            <mxPoint x="555" y="-465"/>
                        </Array>
                    </mxGeometry>
                </mxCell>
                <mxCell id="AaTsj4VFo2ENV-WCoRB4-9" style="edgeStyle=none;curved=1;sketch=0;jumpStyle=none;jumpSize=2;orthogonalLoop=1;jettySize=auto;html=1;exitX=0.75;exitY=0;exitDx=0;exitDy=0;entryX=0.126;entryY=0.002;entryDx=0;entryDy=0;entryPerimeter=0;shadow=0;dashed=1;strokeColor=#FF8000;strokeWidth=6;fontFamily=Comic Sans MS;fontSize=20;fontColor=#000000;startArrow=classic;startFill=1;endArrow=classic;endFill=1;targetPerimeterSpacing=1;" parent="AaTsj4VFo2ENV-WCoRB4-2" edge="1">
                    <mxGeometry relative="1" as="geometry">
                        <mxPoint x="438.75" y="615" as="sourcePoint"/>
                        <mxPoint x="724.1399999999999" y="615.7200000000003" as="targetPoint"/>
                        <Array as="points">
                            <mxPoint x="420" y="-420"/>
                        </Array>
                    </mxGeometry>
                </mxCell>
                <mxCell id="0Zcb1wvKVoteUL0pYanl-10" style="edgeStyle=none;curved=1;sketch=0;jumpStyle=none;jumpSize=2;orthogonalLoop=1;jettySize=auto;html=1;exitX=0.75;exitY=0;exitDx=0;exitDy=0;entryX=0.105;entryY=-0.005;entryDx=0;entryDy=0;entryPerimeter=0;shadow=0;dashed=1;strokeColor=#FF8000;strokeWidth=6;fontFamily=Comic Sans MS;fontSize=20;fontColor=#000000;startArrow=classic;startFill=1;endArrow=classic;endFill=1;targetPerimeterSpacing=1;" parent="AaTsj4VFo2ENV-WCoRB4-2" source="0Zcb1wvKVoteUL0pYanl-16" target="0Zcb1wvKVoteUL0pYanl-13" edge="1">
                    <mxGeometry relative="1" as="geometry">
                        <Array as="points">
                            <mxPoint x="750" y="225"/>
                            <mxPoint x="375" y="-15"/>
                            <mxPoint x="840" y="60"/>
                        </Array>
                    </mxGeometry>
                </mxCell>
                <mxCell id="zpsw3IufiYo-VEUWoXs3-0" value="Scenario-4: BGP Peering NVA" parent="0Zcb1wvKVoteUL0pYanl-0" visible="0"/>
                <mxCell id="49" value="" style="rounded=0;whiteSpace=wrap;html=1;glass=0;labelBackgroundColor=#FFFF66;labelBorderColor=#FF0000;comic=0;fillStyle=auto;sketchStyle=rough;strokeColor=#3399FF;strokeWidth=5;fontFamily=Comic Sans MS;fontSize=22;fontColor=#000000;fillColor=#CCE5FF;gradientColor=none;dashGap=0;zigzagOffset=0;dashOffset=0;fixDash=0;sketch=1;curveFitting=1;jiggle=1;disableMultiStroke=1;disableMultiStrokeFill=1;hachureGap=-1;fillWeight=-1;snapToPoint=1;fontSource=https%3A%2F%2Ffonts.googleapis.com%2Fcss%3Ffamily%3DArchitects%2BDaughter;" parent="zpsw3IufiYo-VEUWoXs3-0" vertex="1">
                    <mxGeometry x="-915" y="-52" width="510" height="270" as="geometry"/>
                </mxCell>
                <mxCell id="50" style="edgeStyle=none;curved=1;sketch=0;hachureGap=4;jiggle=2;curveFitting=1;html=1;strokeColor=#7EA6E0;strokeWidth=5;fontFamily=Comic Sans MS;fontSource=https%3A%2F%2Ffonts.googleapis.com%2Fcss%3Ffamily%3DArchitects%2BDaughter;fontSize=22;fontColor=#000000;endArrow=diamond;shadow=0;startArrow=diamond;startFill=0;endFill=0;targetPerimeterSpacing=1;" parent="zpsw3IufiYo-VEUWoXs3-0" edge="1">
                    <mxGeometry relative="1" as="geometry">
                        <mxPoint x="60" y="83" as="sourcePoint"/>
                        <mxPoint x="-405" y="83" as="targetPoint"/>
                    </mxGeometry>
                </mxCell>
                <mxCell id="51" value="&lt;font style=&quot;font-size: 25px;&quot;&gt;NVA-VNET&lt;br&gt;10.15.0.0/16&lt;/font&gt;" style="text;html=1;align=center;verticalAlign=middle;resizable=0;points=[];autosize=1;strokeColor=none;fillColor=none;fontSize=22;fontFamily=Comic Sans MS;fontColor=#000000;fontStyle=1" parent="zpsw3IufiYo-VEUWoXs3-0" vertex="1">
                    <mxGeometry x="-810" y="-52" width="195" height="75" as="geometry"/>
                </mxCell>
                <mxCell id="60" style="edgeStyle=none;curved=1;hachureGap=4;html=1;exitX=0.5;exitY=0;exitDx=0;exitDy=0;entryX=0.351;entryY=-0.057;entryDx=0;entryDy=0;entryPerimeter=0;strokeColor=#FF0000;strokeWidth=5;fontFamily=Architects Daughter;fontSource=https%3A%2F%2Ffonts.googleapis.com%2Fcss%3Ffamily%3DArchitects%2BDaughter;fontSize=3;fontColor=#FF0000;dashed=1;flowAnimation=1;startArrow=classic;startFill=1;" parent="zpsw3IufiYo-VEUWoXs3-0" source="52" target="58" edge="1">
                    <mxGeometry relative="1" as="geometry">
                        <Array as="points">
                            <mxPoint x="-165" y="-150"/>
                        </Array>
                    </mxGeometry>
                </mxCell>
                <mxCell id="62" value="Text" style="edgeLabel;html=1;align=center;verticalAlign=middle;resizable=0;points=[];fontSize=3;fontFamily=Architects Daughter;fontColor=#FF0000;" parent="60" vertex="1" connectable="0">
                    <mxGeometry x="-0.1888" y="-49" relative="1" as="geometry">
                        <mxPoint x="1" as="offset"/>
                    </mxGeometry>
                </mxCell>
                <mxCell id="52" value="" style="shape=image;verticalLabelPosition=bottom;labelBackgroundColor=default;verticalAlign=top;aspect=fixed;imageAspect=0;image=data:image/png,iVBORw0KGgoAAAANSUhEUgAAAHoAAAB4CAYAAAA9kebvAAAPLElEQVR4nO2de3AT173Hv7trsGxkW36/8QtsBxQwhQZDQrCdkubRmebezr0ht0xC7r3No8lNoJ07adqbApN7S2f6YPpImmQ6k7rt0CQzbaDNTAgEEDTBhMREYAJ2Co7ANn5jSca2DJbO/UPSWvuSdvVayT6fmTMj7Xns2f3q99uzv7N7xBBCCChzHlbvDlDiAxV6nkCFniekhCrQa7NhxGaLR18oEZJiMMDc2CifSRToaGsjl+rrCQFoSqI0ZTCQo7t3S/SUFbqjrU33DtMUWbJs2xZaaGrJyZ08DEMI4DVYH5LBWJfViurOzlhfTigxhCEEADCyfz+/TSL0KBV5zpAyMMB/lgjtcbni2hlKfKD30fMEKvQ8gQo9T6BCzxOCh0AZRvjdN2yXbKfoQzA9/Hk+lIVmWBBWaPCM2w2A+LZTsfWGcc8AAAjLCTOIh7+X9qMoNGEYeDhhA5zHDRDAw3LUqhMAzie0WCfGAzAej2BbUKHFvxQCnx2zHAgVOmEQ6yS2ZiCo62ZARL8Ur8wEhGNBGDqOSxTEOhHikZTRJrRXZxCWk1y/KfohEdrjlpTR5Lr5PCp0QiHRScbbhuG64XXdCj8CSvyRWLSMEQYXWvJL8TXEcFToBEIyaNZi0YRh4eHE2V6lPRwHIsmj6IVYJ1aLRRMZ183fXnGcjFun6IVEC+q65yYRuW6v0OIKvsEYK5dH0QuxFnLBrBCuWz6bcCn0Gp1ASLSQ8bbBJzUkARO/RcvkUXRDenulwaLl76NnG6ZCJw4R3UeHjoxRoROFyCNjkgZ8rpuJXmQs79zHgu9fzTDhN2XVyFTpMcT1R8xfBgDsHuzFz4b7+e0X6huQn7JAdb+cbjeqL5zmv383vxjPF5Ypln95ZAA/HOhRXT6aRBgwYeBJEWb7J79ISookL1q8N27Hvut2bMktDKu+v193mXIFQrdPT+FuQ5rqdjqnpwTf7zLlKh6z0z0jEBkAfjbcj/8oKEXeAvU/rnCR6CRjJCGeMFGIdbOxjXV/p6cbjRnZqNEgjB9/v2rTjYLth8Yd2JSdr7qdQ+MOwffadKPiMZ+ZGJfd3u6axN2pOar3GS5Si5YOxhRvhv3X6MAkDphEIymxs88WVn3/duOCVOwoq+a3t44M4OKNaVVtOgnBngAL/WlFLYwLUhXL/9U+ypfdXryY//y+cyxq5ynYsUt1ksqqHPVgfLNUAYlvWLQ9kqTEQccoDjqvaa4fmLfBlCvIO+uaUNWntgmnoF5DRpZi2WHPDFoDLhHfLCzlP7cO9+PiDVdUz5cqPWRG3UHCWywImyJIs66bk+SFm8T8sKKW//zw5x3ovXlTU/3AvGUZJkHeX0aHVPXpfccYX2dTdh6WZZgUy/59fPZHsa20CiVpRjwcMAg7OzUZtXOldOzSPA1CE9b7cGBg8rtuD8tJ8sJNYh4qLsemnNlr6S+vXtZUX5z/Ut1KPu/Q2Agu3nAFbW/IPYPfD/bydR4oKA1a/u3R2RfZWnIL4eE4NOcW8NveHh2I2rlSOnbxds2jbrnZKwAxnb0yphrwdMVSHLo2DAD4w0AP7i8owe3Zearqi/tlzhRadcfkdVQZMxXrfzopHFitNuUqHmv35HW+nwCwJCMThOPQkDU7ADt0bRifTU1gWZB9Roqa2asgrltmMCYadcdiMEZYDqtMeXgmwIVvPvsRhmdmVNcPTFXGLHwl4Fbt7aGrQftzOEC4LSUVKPGNtuXSSaedL/tMRS2MCw0gLIdcQzq2lFTwedbrzqidLzWDMW3XaJbhQ518yNM/6mY5SV64SSKUb/sjFUsE2/8y1KepfmD6euBIeHQQl1yTsuV6b07jj1cv82Wb84uD9v25rjOzZQuEZZvzi/m857rOwEk8UTtn4mOX5GkZdRPfpIaw4YBnxmIsdG5aOvauuZPf/r//OIf2cXtYQq/LEwZfzk2My5ZrD7BQALgtr1Cx3+3jwrJLMk2C/JWiS83nUxNxExoykxoaXbev4Ri4H7m21+UX45vlNXzeS190wen2aHLdhOWQm7ZI0M6+gR7ZcvsC7p2frlnGu2K5dGRkMGhZ8T6PjAxS1y0QSpT/ZK2Zzzs8dBXvDPVqtmjCcWgqKhO00y2ysO6pCRweusqXaS4qU2zL6XHj15fOhywbuM9fXzqPkZmbcbFoba5bx8FYYCpelInXbmvm879/9hS6Jyc0WTRhOXw5r0hQ7ty4Q5B/ThTybMgtVGzro7FRQdmazGzZcitzCgTlPnVEN1KmdMzanxmTsRggtvPRcu22lFbg36rqsPeLLgDAj86fxmvr7lJdHwCMXBqeqluBl7rOAgD299lw/+JZ17q/b3Z1xP9btT7o8VmGrwq+N7z7pmJZcb2W0orQBTUi7qvGgIn3cd/ARJjZyJg4L9wkRqncI7Ur+DJHBnrw/uBVTfU9XAo2llQK2jg/7oCHS8H5cQeOBFyfb80tVGyjd9rF/+C0sveLLlyanIj6uZPqFPF9tJdYuJ9QbVdm5eDFgFH4EycOos81pbo+YTlUi2LfZ+yjICyHMwGTEi0lFajLKVBs43TAfXY4fOa4FnPXre0JEzZxXLeff1lqxpH+Kzjqc7OvdlqxeclyvHHxM1X1jVwaXrytCS+csgAAXvjkOO6prMULnxzny9xfWRu0jb/1XOI/P7l8NZ5dsTbkMe38+Bjfx7/1XMJ9VXUh62hB0l9NT5hA7lGi2M9Hh2r3mZXreKEDBVZb35xXLPj+8fCA4PuqglLFNjrHRvh9A8CdZdWqzsOdpVV8X4/22XDBMYZ6lSFdNYj7oPmZMcmkgWhSIxaEarc2rxD/vXoDftL+97DrN5VVw9LbDQD49rF3+LwHa29FYaYJ0reLvZwdGxJ8r87OU3UezAUlknZq88J7gkYOcR8iv4/2NxSDe0EtbX+jfiWayqslddXWv7/mFtm6d1fXK9YZd89gR9thvuzjKxuxKC1d1f5yjBn414BZtB1thzHunonrfbSyRcu4buI3aR1dNwAsMqTjPxvWw9LTHVb9+vxi2e3L8ksU618UhUc3LF6i6RxsWFyDtwJi4xeddqwUWXq4SPqhyaIZaVAkHo8Sqa23oqgcj61aH1b9iux8bFwsnDR5bNV6LDKkK9Y53iv8UVUHGZnLpVtFT4Qe7+2O3ahbyys5IV+Ej9I1+swT/yP4Ll1mRZmn1rbgqbUtYdX/5X2bJduC1Y1kXwCQbcyM6FiDoSZgQt+9mgNE+O6VwmI1mJ3UoCQGEVm07JsacXqum6INyaBZ69IWSmIqDaQo+iDRIuLBGH1tNiGJeDAmibgENByryBhFO2oiYxqv0f6GqOtOJCK8RlPXnSxItKAWPTeJyKK9a5jILyjnDZ7TgEmiINYijMgYDZgkA1Fw3fJzHt6ACV1nLFGIeJ0x8cN3JMB1yz2YR9EHiU6aY91iq+WnKalFJxJ05cB5QvRXDozBfDQlcqQhUK2xbkmw3NcQXd03oYh+ZIxadEIS0e0VndRIHqIwqSHK5l23/IpAFH0Qa0EYzY8SKSzMzsnlUfRCrIWmwZj3Xlk+e+G4E5MF8VnQlCJPyuR1/rPU82p690rq6wfX3InKA29hxcu70Lfh3gi6SYmUvI5TAICRFWulARNN12iWBRGtGntl0z+j+ORhpI0MYMnbr0ehu5RIuJluhO2+zRKdIl6Y/XpZNQ6/+i5KThzEor7LCjUp8WDalIv+9Ztwc1GGNDPy12a99N1B3XYiE7UX4SkJjhqLXmDyrp2ZNtRPgyJJikeNRZc2NAAAsj8/i4XOMUxH8c18SnwoOnUUADBTN7uEBkOI9H/iP7n3Xqw5cACO6ltw5umduFbfEL9eUsImfbAPNftbUbOvFS6DASMXLqCs0rcSE5FhsL+fDBYVEQLQlKTpwz/9SaCprNCEEGIfGyPHnniC9FRW6t5pmtSlKYOBfHzPPaSjrU2ip6zrTiZ6bTaUVVVhoqgM7+5ti8k+lrX+HMta98CyYweadu6MyT5izRyagmJk3yKMWttJDp2CmidQoecJVGgVeBam6t2FiKFCq8Dl+3umlMvJO5FDhZ4nUKFVMFFUrncXIibphZ6we5dunCyK3aNNbt812mizhSiZuCS90HbfyXeJ/r8imkz6LDqPCq0f0wPe9bYnYmjR/sFY3sBAiJKJS9IL7fGNhKc1/Al4OEwUlcPgcqE3Sa066YUuPnAAAOBYuhyMLwoai+RYshwAYLNY9DzcsElqoR12O+qsVrgXpsJuXg2WZWKWRlc1end67Ji+Bx0mSS10p8+6xpZ/CWRhKlggZmm0wbs2eCW1aB1obQXgFYFhmJgmZ60Z0zkFKLPZYE1CsZNWaKvFgrX79mE6pwBfPPitmF6f/enilqcAAGnbt+t89NpJSqEddjsyn3wSAHBpy9NwZ2SBZZiYpyv/9AicS5ejzmqF5cc/1vksaCPphHbY7RhobkZ1Zyfs5tW48o2HwbCISyKGVHR9+wcAgKbnn4cliZ42SSqhrRYLBpqbUWe1wllrRvuevUCqIS7W7E+j61rQ8cIvAABNu3bh2PbtcNjtIXquP0nxzJjVYgF27UKDbxA0XmvGqZf/jJmMLN36VPrOmzC/+CwAwGEywbp1K2557jkUFBWFqKkPCSe0y+VC58mTsFssMH70EcwWCwwuFwBgJiMLlzd/C5c3P6aryH5y2k+g+rc/QU77CX5bd309rjY2Ahs3oqSxEdX19Tr2cJaEEfr4K68gff9+rPFFugKZKi5H/9cexJWHEkNgMRmfn0Nl669QeHCfJK+3shK2piaYHn8c5sZGHXrnRXehuzs7MfnoozCfPMlvu15rxtia2+E0fwljq2/HjdzYzUxFm8yOdmR1fILMc6eR3f4hFo7O/p+lZfduNH3ve7r0S1ehe202ZKxahSy7HTdyC/CP776Ia+tbEtJqw8XYdQ5F77yJ8r2vAgA+2LoVd7we/0UEdBPa5XLhYnMzzCdP4tr6Fpzf/eqcElhMzokjMH/nEbA3pvHB66/jjq1b47p/3YT+4He/wx2PPgpXSTlOv3F0Tovsp/Cvb6Bux3/BYTIhtb8fBoMhbvvW7T6afe89AEDvvz8Ld5YJDMvM+TT0wEOYrFqKLLsdnQFjknigm0U7srORlQSBhlhxbNs2bNyzJ27708Wiu6zWeS0yANTsk96KxRLdb68o8SGpYt2U8Pl/GI0QXxDpcIQAAAAASUVORK5CYII=;sketch=1;curveFitting=1;jiggle=2;" parent="zpsw3IufiYo-VEUWoXs3-0" vertex="1">
                    <mxGeometry x="-525" y="2.0000000000000426" width="70" height="68.85" as="geometry"/>
                </mxCell>
                <mxCell id="53" value="" style="rounded=0;whiteSpace=wrap;html=1;glass=0;labelBackgroundColor=#FFFF66;labelBorderColor=#FF0000;comic=0;fillStyle=auto;sketchStyle=rough;strokeColor=#3399FF;strokeWidth=5;fontFamily=Comic Sans MS;fontSize=22;fontColor=#000000;fillColor=#CCE5FF;gradientColor=none;dashGap=0;zigzagOffset=0;dashOffset=0;fixDash=0;sketch=1;curveFitting=1;jiggle=1;disableMultiStroke=1;disableMultiStrokeFill=1;hachureGap=-1;fillWeight=-1;snapToPoint=1;fontSource=https%3A%2F%2Ffonts.googleapis.com%2Fcss%3Ffamily%3DArchitects%2BDaughter;" parent="zpsw3IufiYo-VEUWoXs3-0" vertex="1">
                    <mxGeometry x="3555" y="-105" width="510" height="270" as="geometry"/>
                </mxCell>
                <mxCell id="54" style="edgeStyle=none;curved=1;sketch=0;hachureGap=4;jiggle=2;curveFitting=1;html=1;strokeColor=#7EA6E0;strokeWidth=5;fontFamily=Comic Sans MS;fontSource=https%3A%2F%2Ffonts.googleapis.com%2Fcss%3Ffamily%3DArchitects%2BDaughter;fontSize=22;fontColor=#000000;endArrow=diamond;shadow=0;startArrow=diamond;startFill=0;endFill=0;targetPerimeterSpacing=1;entryX=-0.012;entryY=0.608;entryDx=0;entryDy=0;entryPerimeter=0;" parent="zpsw3IufiYo-VEUWoXs3-0" target="53" edge="1">
                    <mxGeometry relative="1" as="geometry">
                        <mxPoint x="3180" y="59" as="sourcePoint"/>
                    </mxGeometry>
                </mxCell>
                <mxCell id="55" value="&lt;font style=&quot;font-size: 25px;&quot;&gt;NVA-VNET&lt;br&gt;10.16.0.0/16&lt;/font&gt;" style="text;html=1;align=center;verticalAlign=middle;resizable=0;points=[];autosize=1;strokeColor=none;fillColor=none;fontSize=22;fontFamily=Comic Sans MS;fontColor=#000000;fontStyle=1" parent="zpsw3IufiYo-VEUWoXs3-0" vertex="1">
                    <mxGeometry x="3705" y="-105" width="195" height="75" as="geometry"/>
                </mxCell>
                <mxCell id="56" value="" style="shape=image;verticalLabelPosition=bottom;labelBackgroundColor=default;verticalAlign=top;aspect=fixed;imageAspect=0;image=data:image/png,iVBORw0KGgoAAAANSUhEUgAAAHoAAAB4CAYAAAA9kebvAAAPLElEQVR4nO2de3AT173Hv7trsGxkW36/8QtsBxQwhQZDQrCdkubRmebezr0ht0xC7r3No8lNoJ07adqbApN7S2f6YPpImmQ6k7rt0CQzbaDNTAgEEDTBhMREYAJ2Co7ANn5jSca2DJbO/UPSWvuSdvVayT6fmTMj7Xns2f3q99uzv7N7xBBCCChzHlbvDlDiAxV6nkCFniekhCrQa7NhxGaLR18oEZJiMMDc2CifSRToaGsjl+rrCQFoSqI0ZTCQo7t3S/SUFbqjrU33DtMUWbJs2xZaaGrJyZ08DEMI4DVYH5LBWJfViurOzlhfTigxhCEEADCyfz+/TSL0KBV5zpAyMMB/lgjtcbni2hlKfKD30fMEKvQ8gQo9T6BCzxOCh0AZRvjdN2yXbKfoQzA9/Hk+lIVmWBBWaPCM2w2A+LZTsfWGcc8AAAjLCTOIh7+X9qMoNGEYeDhhA5zHDRDAw3LUqhMAzie0WCfGAzAej2BbUKHFvxQCnx2zHAgVOmEQ6yS2ZiCo62ZARL8Ur8wEhGNBGDqOSxTEOhHikZTRJrRXZxCWk1y/KfohEdrjlpTR5Lr5PCp0QiHRScbbhuG64XXdCj8CSvyRWLSMEQYXWvJL8TXEcFToBEIyaNZi0YRh4eHE2V6lPRwHIsmj6IVYJ1aLRRMZ183fXnGcjFun6IVEC+q65yYRuW6v0OIKvsEYK5dH0QuxFnLBrBCuWz6bcCn0Gp1ASLSQ8bbBJzUkARO/RcvkUXRDenulwaLl76NnG6ZCJw4R3UeHjoxRoROFyCNjkgZ8rpuJXmQs79zHgu9fzTDhN2XVyFTpMcT1R8xfBgDsHuzFz4b7+e0X6huQn7JAdb+cbjeqL5zmv383vxjPF5Ypln95ZAA/HOhRXT6aRBgwYeBJEWb7J79ISookL1q8N27Hvut2bMktDKu+v193mXIFQrdPT+FuQ5rqdjqnpwTf7zLlKh6z0z0jEBkAfjbcj/8oKEXeAvU/rnCR6CRjJCGeMFGIdbOxjXV/p6cbjRnZqNEgjB9/v2rTjYLth8Yd2JSdr7qdQ+MOwffadKPiMZ+ZGJfd3u6axN2pOar3GS5Si5YOxhRvhv3X6MAkDphEIymxs88WVn3/duOCVOwoq+a3t44M4OKNaVVtOgnBngAL/WlFLYwLUhXL/9U+ypfdXryY//y+cyxq5ynYsUt1ksqqHPVgfLNUAYlvWLQ9kqTEQccoDjqvaa4fmLfBlCvIO+uaUNWntgmnoF5DRpZi2WHPDFoDLhHfLCzlP7cO9+PiDVdUz5cqPWRG3UHCWywImyJIs66bk+SFm8T8sKKW//zw5x3ovXlTU/3AvGUZJkHeX0aHVPXpfccYX2dTdh6WZZgUy/59fPZHsa20CiVpRjwcMAg7OzUZtXOldOzSPA1CE9b7cGBg8rtuD8tJ8sJNYh4qLsemnNlr6S+vXtZUX5z/Ut1KPu/Q2Agu3nAFbW/IPYPfD/bydR4oKA1a/u3R2RfZWnIL4eE4NOcW8NveHh2I2rlSOnbxds2jbrnZKwAxnb0yphrwdMVSHLo2DAD4w0AP7i8owe3Zearqi/tlzhRadcfkdVQZMxXrfzopHFitNuUqHmv35HW+nwCwJCMThOPQkDU7ADt0bRifTU1gWZB9Roqa2asgrltmMCYadcdiMEZYDqtMeXgmwIVvPvsRhmdmVNcPTFXGLHwl4Fbt7aGrQftzOEC4LSUVKPGNtuXSSaedL/tMRS2MCw0gLIdcQzq2lFTwedbrzqidLzWDMW3XaJbhQ518yNM/6mY5SV64SSKUb/sjFUsE2/8y1KepfmD6euBIeHQQl1yTsuV6b07jj1cv82Wb84uD9v25rjOzZQuEZZvzi/m857rOwEk8UTtn4mOX5GkZdRPfpIaw4YBnxmIsdG5aOvauuZPf/r//OIf2cXtYQq/LEwZfzk2My5ZrD7BQALgtr1Cx3+3jwrJLMk2C/JWiS83nUxNxExoykxoaXbev4Ri4H7m21+UX45vlNXzeS190wen2aHLdhOWQm7ZI0M6+gR7ZcvsC7p2frlnGu2K5dGRkMGhZ8T6PjAxS1y0QSpT/ZK2Zzzs8dBXvDPVqtmjCcWgqKhO00y2ysO6pCRweusqXaS4qU2zL6XHj15fOhywbuM9fXzqPkZmbcbFoba5bx8FYYCpelInXbmvm879/9hS6Jyc0WTRhOXw5r0hQ7ty4Q5B/ThTybMgtVGzro7FRQdmazGzZcitzCgTlPnVEN1KmdMzanxmTsRggtvPRcu22lFbg36rqsPeLLgDAj86fxmvr7lJdHwCMXBqeqluBl7rOAgD299lw/+JZ17q/b3Z1xP9btT7o8VmGrwq+N7z7pmJZcb2W0orQBTUi7qvGgIn3cd/ARJjZyJg4L9wkRqncI7Ur+DJHBnrw/uBVTfU9XAo2llQK2jg/7oCHS8H5cQeOBFyfb80tVGyjd9rF/+C0sveLLlyanIj6uZPqFPF9tJdYuJ9QbVdm5eDFgFH4EycOos81pbo+YTlUi2LfZ+yjICyHMwGTEi0lFajLKVBs43TAfXY4fOa4FnPXre0JEzZxXLeff1lqxpH+Kzjqc7OvdlqxeclyvHHxM1X1jVwaXrytCS+csgAAXvjkOO6prMULnxzny9xfWRu0jb/1XOI/P7l8NZ5dsTbkMe38+Bjfx7/1XMJ9VXUh62hB0l9NT5hA7lGi2M9Hh2r3mZXreKEDBVZb35xXLPj+8fCA4PuqglLFNjrHRvh9A8CdZdWqzsOdpVV8X4/22XDBMYZ6lSFdNYj7oPmZMcmkgWhSIxaEarc2rxD/vXoDftL+97DrN5VVw9LbDQD49rF3+LwHa29FYaYJ0reLvZwdGxJ8r87OU3UezAUlknZq88J7gkYOcR8iv4/2NxSDe0EtbX+jfiWayqslddXWv7/mFtm6d1fXK9YZd89gR9thvuzjKxuxKC1d1f5yjBn414BZtB1thzHunonrfbSyRcu4buI3aR1dNwAsMqTjPxvWw9LTHVb9+vxi2e3L8ksU618UhUc3LF6i6RxsWFyDtwJi4xeddqwUWXq4SPqhyaIZaVAkHo8Sqa23oqgcj61aH1b9iux8bFwsnDR5bNV6LDKkK9Y53iv8UVUHGZnLpVtFT4Qe7+2O3ahbyys5IV+Ej9I1+swT/yP4Ll1mRZmn1rbgqbUtYdX/5X2bJduC1Y1kXwCQbcyM6FiDoSZgQt+9mgNE+O6VwmI1mJ3UoCQGEVm07JsacXqum6INyaBZ69IWSmIqDaQo+iDRIuLBGH1tNiGJeDAmibgENByryBhFO2oiYxqv0f6GqOtOJCK8RlPXnSxItKAWPTeJyKK9a5jILyjnDZ7TgEmiINYijMgYDZgkA1Fw3fJzHt6ACV1nLFGIeJ0x8cN3JMB1yz2YR9EHiU6aY91iq+WnKalFJxJ05cB5QvRXDozBfDQlcqQhUK2xbkmw3NcQXd03oYh+ZIxadEIS0e0VndRIHqIwqSHK5l23/IpAFH0Qa0EYzY8SKSzMzsnlUfRCrIWmwZj3Xlk+e+G4E5MF8VnQlCJPyuR1/rPU82p690rq6wfX3InKA29hxcu70Lfh3gi6SYmUvI5TAICRFWulARNN12iWBRGtGntl0z+j+ORhpI0MYMnbr0ehu5RIuJluhO2+zRKdIl6Y/XpZNQ6/+i5KThzEor7LCjUp8WDalIv+9Ztwc1GGNDPy12a99N1B3XYiE7UX4SkJjhqLXmDyrp2ZNtRPgyJJikeNRZc2NAAAsj8/i4XOMUxH8c18SnwoOnUUADBTN7uEBkOI9H/iP7n3Xqw5cACO6ltw5umduFbfEL9eUsImfbAPNftbUbOvFS6DASMXLqCs0rcSE5FhsL+fDBYVEQLQlKTpwz/9SaCprNCEEGIfGyPHnniC9FRW6t5pmtSlKYOBfHzPPaSjrU2ip6zrTiZ6bTaUVVVhoqgM7+5ti8k+lrX+HMta98CyYweadu6MyT5izRyagmJk3yKMWttJDp2CmidQoecJVGgVeBam6t2FiKFCq8Dl+3umlMvJO5FDhZ4nUKFVMFFUrncXIibphZ6we5dunCyK3aNNbt812mizhSiZuCS90HbfyXeJ/r8imkz6LDqPCq0f0wPe9bYnYmjR/sFY3sBAiJKJS9IL7fGNhKc1/Al4OEwUlcPgcqE3Sa066YUuPnAAAOBYuhyMLwoai+RYshwAYLNY9DzcsElqoR12O+qsVrgXpsJuXg2WZWKWRlc1end67Ji+Bx0mSS10p8+6xpZ/CWRhKlggZmm0wbs2eCW1aB1obQXgFYFhmJgmZ60Z0zkFKLPZYE1CsZNWaKvFgrX79mE6pwBfPPitmF6f/enilqcAAGnbt+t89NpJSqEddjsyn3wSAHBpy9NwZ2SBZZiYpyv/9AicS5ejzmqF5cc/1vksaCPphHbY7RhobkZ1Zyfs5tW48o2HwbCISyKGVHR9+wcAgKbnn4cliZ42SSqhrRYLBpqbUWe1wllrRvuevUCqIS7W7E+j61rQ8cIvAABNu3bh2PbtcNjtIXquP0nxzJjVYgF27UKDbxA0XmvGqZf/jJmMLN36VPrOmzC/+CwAwGEywbp1K2557jkUFBWFqKkPCSe0y+VC58mTsFssMH70EcwWCwwuFwBgJiMLlzd/C5c3P6aryH5y2k+g+rc/QU77CX5bd309rjY2Ahs3oqSxEdX19Tr2cJaEEfr4K68gff9+rPFFugKZKi5H/9cexJWHEkNgMRmfn0Nl669QeHCfJK+3shK2piaYHn8c5sZGHXrnRXehuzs7MfnoozCfPMlvu15rxtia2+E0fwljq2/HjdzYzUxFm8yOdmR1fILMc6eR3f4hFo7O/p+lZfduNH3ve7r0S1ehe202ZKxahSy7HTdyC/CP776Ia+tbEtJqw8XYdQ5F77yJ8r2vAgA+2LoVd7we/0UEdBPa5XLhYnMzzCdP4tr6Fpzf/eqcElhMzokjMH/nEbA3pvHB66/jjq1b47p/3YT+4He/wx2PPgpXSTlOv3F0Tovsp/Cvb6Bux3/BYTIhtb8fBoMhbvvW7T6afe89AEDvvz8Ld5YJDMvM+TT0wEOYrFqKLLsdnQFjknigm0U7srORlQSBhlhxbNs2bNyzJ27708Wiu6zWeS0yANTsk96KxRLdb68o8SGpYt2U8Pl/GI0QXxDpcIQAAAAASUVORK5CYII=;sketch=1;curveFitting=1;jiggle=2;" parent="zpsw3IufiYo-VEUWoXs3-0" vertex="1">
                    <mxGeometry x="3627" y="4.263256414560601e-14" width="70" height="68.85" as="geometry"/>
                </mxCell>
                <mxCell id="57" value="&lt;span style=&quot;font-size: 25px;&quot;&gt;10.15.1.4&lt;/span&gt;" style="text;html=1;align=center;verticalAlign=middle;resizable=0;points=[];autosize=1;strokeColor=none;fillColor=none;fontSize=22;fontFamily=Comic Sans MS;fontColor=#000000;fontStyle=1" parent="zpsw3IufiYo-VEUWoXs3-0" vertex="1">
                    <mxGeometry x="-575" y="90" width="150" height="45" as="geometry"/>
                </mxCell>
                <mxCell id="58" value="" style="aspect=fixed;html=1;points=[];align=center;image;fontSize=12;image=img/lib/azure2/networking/Virtual_Router.svg;sketch=1;hachureGap=4;jiggle=2;curveFitting=1;fontFamily=Architects Daughter;fontSource=https%3A%2F%2Ffonts.googleapis.com%2Fcss%3Ffamily%3DArchitects%2BDaughter;fontColor=#FF0000;" parent="zpsw3IufiYo-VEUWoXs3-0" vertex="1">
                    <mxGeometry x="103" y="2" width="68" height="68" as="geometry"/>
                </mxCell>
                <mxCell id="59" value="" style="aspect=fixed;html=1;points=[];align=center;image;fontSize=12;image=img/lib/azure2/networking/Virtual_Router.svg;sketch=1;hachureGap=4;jiggle=2;curveFitting=1;fontFamily=Architects Daughter;fontSource=https%3A%2F%2Ffonts.googleapis.com%2Fcss%3Ffamily%3DArchitects%2BDaughter;fontColor=#FF0000;" parent="zpsw3IufiYo-VEUWoXs3-0" vertex="1">
                    <mxGeometry x="3030" y="-14" width="68" height="68" as="geometry"/>
                </mxCell>
                <mxCell id="63" value="&lt;span style=&quot;font-size: 30px;&quot;&gt;&lt;font color=&quot;#ff0000&quot; style=&quot;font-size: 30px;&quot;&gt;eBGP Peering&lt;/font&gt;&lt;/span&gt;" style="text;html=1;align=center;verticalAlign=middle;resizable=0;points=[];autosize=1;strokeColor=none;fillColor=none;fontSize=30;fontFamily=Comic Sans MS;fontColor=#000000;fontStyle=1" parent="zpsw3IufiYo-VEUWoXs3-0" vertex="1">
                    <mxGeometry x="-290" y="-135" width="225" height="45" as="geometry"/>
                </mxCell>
                <mxCell id="65" value="&lt;span style=&quot;font-size: 25px;&quot;&gt;Hub Router&lt;/span&gt;" style="text;html=1;align=center;verticalAlign=middle;resizable=0;points=[];autosize=1;strokeColor=none;fillColor=none;fontSize=22;fontFamily=Comic Sans MS;fontColor=#000000;fontStyle=1" parent="zpsw3IufiYo-VEUWoXs3-0" vertex="1">
                    <mxGeometry x="63" y="63.08000000000001" width="165" height="45" as="geometry"/>
                </mxCell>
                <mxCell id="66" style="edgeStyle=none;curved=1;hachureGap=4;html=1;entryX=0.351;entryY=-0.057;entryDx=0;entryDy=0;entryPerimeter=0;strokeColor=#FF0000;strokeWidth=5;fontFamily=Architects Daughter;fontSource=https%3A%2F%2Ffonts.googleapis.com%2Fcss%3Ffamily%3DArchitects%2BDaughter;fontSize=3;fontColor=#FF0000;dashed=1;flowAnimation=1;startArrow=classic;startFill=1;" parent="zpsw3IufiYo-VEUWoXs3-0" edge="1">
                    <mxGeometry relative="1" as="geometry">
                        <mxPoint x="3075" y="-18" as="sourcePoint"/>
                        <mxPoint x="3646.8680000000004" y="-17.876000000000204" as="targetPoint"/>
                        <Array as="points">
                            <mxPoint x="3355" y="-166"/>
                        </Array>
                    </mxGeometry>
                </mxCell>
                <mxCell id="67" value="Text" style="edgeLabel;html=1;align=center;verticalAlign=middle;resizable=0;points=[];fontSize=3;fontFamily=Architects Daughter;fontColor=#FF0000;" parent="66" vertex="1" connectable="0">
                    <mxGeometry x="-0.1888" y="-49" relative="1" as="geometry">
                        <mxPoint x="1" as="offset"/>
                    </mxGeometry>
                </mxCell>
                <mxCell id="71" value="Text" style="edgeLabel;html=1;align=center;verticalAlign=middle;resizable=0;points=[];fontSize=3;fontFamily=Architects Daughter;fontColor=#FF0000;" parent="66" vertex="1" connectable="0">
                    <mxGeometry x="-0.1888" y="-49" relative="1" as="geometry">
                        <mxPoint x="3548" y="-30" as="offset"/>
                    </mxGeometry>
                </mxCell>
                <mxCell id="70" value="&lt;font style=&quot;font-size: 30px;&quot; color=&quot;#ff0000&quot;&gt;eBGP Peering&lt;/font&gt;" style="text;html=1;align=center;verticalAlign=middle;resizable=0;points=[];autosize=1;strokeColor=none;fillColor=none;fontSize=22;fontFamily=Comic Sans MS;fontColor=#000000;fontStyle=1" parent="zpsw3IufiYo-VEUWoXs3-0" vertex="1">
                    <mxGeometry x="3256" y="-165" width="225" height="45" as="geometry"/>
                </mxCell>
                <mxCell id="73" value="&lt;span style=&quot;font-size: 25px;&quot;&gt;Hub Router&lt;/span&gt;" style="text;html=1;align=center;verticalAlign=middle;resizable=0;points=[];autosize=1;strokeColor=none;fillColor=none;fontSize=22;fontFamily=Comic Sans MS;fontColor=#000000;fontStyle=1" parent="zpsw3IufiYo-VEUWoXs3-0" vertex="1">
                    <mxGeometry x="2981" y="68.00000000000001" width="165" height="45" as="geometry"/>
                </mxCell>
                <mxCell id="74" value="" style="endArrow=classic;html=1;dashed=1;sketch=0;hachureGap=4;jiggle=2;curveFitting=1;strokeColor=#FF0000;strokeWidth=5;fontFamily=Architects Daughter;fontSource=https%3A%2F%2Ffonts.googleapis.com%2Fcss%3Ffamily%3DArchitects%2BDaughter;fontSize=3;fontColor=#FF0000;curved=1;endFill=1;" parent="zpsw3IufiYo-VEUWoXs3-0" edge="1">
                    <mxGeometry width="50" height="50" relative="1" as="geometry">
                        <mxPoint x="-368" y="18" as="sourcePoint"/>
                        <mxPoint x="-188" y="18" as="targetPoint"/>
                    </mxGeometry>
                </mxCell>
                <mxCell id="75" value="&lt;font style=&quot;font-size: 30px;&quot; color=&quot;#ff0000&quot;&gt;0/0&lt;/font&gt;" style="text;html=1;align=center;verticalAlign=middle;resizable=0;points=[];autosize=1;strokeColor=none;fillColor=none;fontSize=30;fontFamily=Comic Sans MS;fontColor=#000000;fontStyle=1" parent="zpsw3IufiYo-VEUWoXs3-0" vertex="1">
                    <mxGeometry x="-384" y="16" width="90" height="45" as="geometry"/>
                </mxCell>
                <mxCell id="79" value="&lt;font style=&quot;font-size: 30px;&quot;&gt;&lt;b&gt;Internet&lt;/b&gt;&lt;/font&gt;" style="ellipse;shape=cloud;whiteSpace=wrap;html=1;rounded=0;glass=0;labelBackgroundColor=default;sketch=0;fillStyle=auto;strokeColor=#000000;strokeWidth=4;fontFamily=Comic Sans MS;fontSize=25;fontColor=#000000;fillColor=none;gradientColor=none;opacity=70;" parent="zpsw3IufiYo-VEUWoXs3-0" vertex="1">
                    <mxGeometry x="-1410" y="-405" width="735" height="165" as="geometry"/>
                </mxCell>
                <mxCell id="80" value="&lt;font style=&quot;font-size: 30px;&quot;&gt;&lt;b&gt;Internet&lt;/b&gt;&lt;/font&gt;" style="ellipse;shape=cloud;whiteSpace=wrap;html=1;rounded=0;glass=0;labelBackgroundColor=default;sketch=0;fillStyle=auto;strokeColor=#000000;strokeWidth=4;fontFamily=Comic Sans MS;fontSize=25;fontColor=#000000;fillColor=none;gradientColor=none;opacity=70;" parent="zpsw3IufiYo-VEUWoXs3-0" vertex="1">
                    <mxGeometry x="4125" y="-345" width="735" height="165" as="geometry"/>
                </mxCell>
                <mxCell id="81" style="edgeStyle=none;curved=1;sketch=0;hachureGap=4;jiggle=2;curveFitting=1;html=1;exitX=0.875;exitY=0.5;exitDx=0;exitDy=0;entryX=0.25;entryY=1;entryDx=0;entryDy=0;dashed=1;strokeColor=#CC00CC;strokeWidth=5;fontFamily=Architects Daughter;fontSource=https%3A%2F%2Ffonts.googleapis.com%2Fcss%3Ffamily%3DArchitects%2BDaughter;fontSize=30;fontColor=#009900;startArrow=classic;startFill=1;endArrow=none;endFill=0;exitPerimeter=0;" parent="zpsw3IufiYo-VEUWoXs3-0" source="79" target="0Zcb1wvKVoteUL0pYanl-39" edge="1">
                    <mxGeometry relative="1" as="geometry">
                        <Array as="points">
                            <mxPoint x="-465" y="225"/>
                            <mxPoint x="360" y="15"/>
                        </Array>
                    </mxGeometry>
                </mxCell>
                <mxCell id="82" value="" style="endArrow=classic;html=1;dashed=1;sketch=0;hachureGap=4;jiggle=2;curveFitting=1;strokeColor=#FF0000;strokeWidth=5;fontFamily=Architects Daughter;fontSource=https%3A%2F%2Ffonts.googleapis.com%2Fcss%3Ffamily%3DArchitects%2BDaughter;fontSize=3;fontColor=#FF0000;curved=1;endFill=1;" parent="zpsw3IufiYo-VEUWoXs3-0" edge="1">
                    <mxGeometry width="50" height="50" relative="1" as="geometry">
                        <mxPoint x="180" y="345" as="sourcePoint"/>
                        <mxPoint x="120" y="450" as="targetPoint"/>
                    </mxGeometry>
                </mxCell>
                <mxCell id="83" value="" style="endArrow=classic;html=1;dashed=1;sketch=0;hachureGap=4;jiggle=2;curveFitting=1;strokeColor=#FF0000;strokeWidth=5;fontFamily=Architects Daughter;fontSource=https%3A%2F%2Ffonts.googleapis.com%2Fcss%3Ffamily%3DArchitects%2BDaughter;fontSize=3;fontColor=#FF0000;curved=1;endFill=1;" parent="zpsw3IufiYo-VEUWoXs3-0" edge="1">
                    <mxGeometry width="50" height="50" relative="1" as="geometry">
                        <mxPoint x="840" y="300" as="sourcePoint"/>
                        <mxPoint x="930" y="360" as="targetPoint"/>
                    </mxGeometry>
                </mxCell>
                <mxCell id="84" value="" style="endArrow=classic;html=1;dashed=1;sketch=0;hachureGap=4;jiggle=2;curveFitting=1;strokeColor=#FF0000;strokeWidth=5;fontFamily=Architects Daughter;fontSource=https%3A%2F%2Ffonts.googleapis.com%2Fcss%3Ffamily%3DArchitects%2BDaughter;fontSize=3;fontColor=#FF0000;curved=1;endFill=1;exitX=0.542;exitY=1;exitDx=0;exitDy=0;exitPerimeter=0;" parent="zpsw3IufiYo-VEUWoXs3-0" source="0Zcb1wvKVoteUL0pYanl-40" edge="1">
                    <mxGeometry width="50" height="50" relative="1" as="geometry">
                        <mxPoint x="460" y="345" as="sourcePoint"/>
                        <mxPoint x="420" y="450" as="targetPoint"/>
                    </mxGeometry>
                </mxCell>
                <mxCell id="85" value="&lt;font style=&quot;font-size: 30px;&quot; color=&quot;#ff0000&quot;&gt;0/0&lt;/font&gt;" style="text;html=1;align=center;verticalAlign=middle;resizable=0;points=[];autosize=1;strokeColor=none;fillColor=none;fontSize=30;fontFamily=Comic Sans MS;fontColor=#000000;fontStyle=1" parent="zpsw3IufiYo-VEUWoXs3-0" vertex="1">
                    <mxGeometry x="138" y="375" width="90" height="45" as="geometry"/>
                </mxCell>
                <mxCell id="87" value="&lt;font style=&quot;font-size: 30px;&quot; color=&quot;#ff0000&quot;&gt;0/0&lt;/font&gt;" style="text;html=1;align=center;verticalAlign=middle;resizable=0;points=[];autosize=1;strokeColor=none;fillColor=none;fontSize=30;fontFamily=Comic Sans MS;fontColor=#000000;fontStyle=1" parent="zpsw3IufiYo-VEUWoXs3-0" vertex="1">
                    <mxGeometry x="870" y="270" width="90" height="45" as="geometry"/>
                </mxCell>
                <mxCell id="88" value="&lt;font style=&quot;font-size: 30px;&quot; color=&quot;#ff0000&quot;&gt;0/0&lt;/font&gt;" style="text;html=1;align=center;verticalAlign=middle;resizable=0;points=[];autosize=1;strokeColor=none;fillColor=none;fontSize=30;fontFamily=Comic Sans MS;fontColor=#000000;fontStyle=1" parent="zpsw3IufiYo-VEUWoXs3-0" vertex="1">
                    <mxGeometry x="450" y="345" width="90" height="45" as="geometry"/>
                </mxCell>
                <mxCell id="89" style="edgeStyle=none;curved=1;sketch=0;hachureGap=4;jiggle=2;curveFitting=1;html=1;dashed=1;strokeColor=#CC00CC;strokeWidth=5;fontFamily=Architects Daughter;fontSource=https%3A%2F%2Ffonts.googleapis.com%2Fcss%3Ffamily%3DArchitects%2BDaughter;fontSize=30;fontColor=#009900;startArrow=classic;startFill=1;endArrow=none;endFill=0;exitX=0.707;exitY=0.841;exitDx=0;exitDy=0;exitPerimeter=0;" parent="zpsw3IufiYo-VEUWoXs3-0" source="79" target="0Zcb1wvKVoteUL0pYanl-18" edge="1">
                    <mxGeometry relative="1" as="geometry">
                        <Array as="points">
                            <mxPoint x="-375" y="360"/>
                            <mxPoint x="870"/>
                        </Array>
                    </mxGeometry>
                </mxCell>
                <mxCell id="92" value="&lt;font style=&quot;font-size: 30px;&quot; color=&quot;#ff0000&quot;&gt;0/0&lt;/font&gt;" style="text;html=1;align=center;verticalAlign=middle;resizable=0;points=[];autosize=1;strokeColor=none;fillColor=none;fontSize=30;fontFamily=Comic Sans MS;fontColor=#000000;fontStyle=1" parent="zpsw3IufiYo-VEUWoXs3-0" vertex="1">
                    <mxGeometry x="850" y="-60" width="90" height="45" as="geometry"/>
                </mxCell>
                <mxCell id="94" value="" style="endArrow=classic;html=1;dashed=1;sketch=0;hachureGap=4;jiggle=2;curveFitting=1;strokeColor=#FF0000;strokeWidth=5;fontFamily=Architects Daughter;fontSource=https%3A%2F%2Ffonts.googleapis.com%2Fcss%3Ffamily%3DArchitects%2BDaughter;fontSize=3;fontColor=#FF0000;curved=1;endFill=1;" parent="zpsw3IufiYo-VEUWoXs3-0" edge="1">
                    <mxGeometry width="50" height="50" relative="1" as="geometry">
                        <mxPoint x="825" y="-60" as="sourcePoint"/>
                        <mxPoint x="1005" y="-60" as="targetPoint"/>
                    </mxGeometry>
                </mxCell>
                <mxCell id="95" value="" style="verticalLabelPosition=bottom;verticalAlign=top;html=1;shape=mxgraph.basic.x;sketch=1;hachureGap=4;jiggle=2;curveFitting=1;fontFamily=Architects Daughter;fontSource=https%3A%2F%2Ffonts.googleapis.com%2Fcss%3Ffamily%3DArchitects%2BDaughter;fontSize=30;fontColor=#009900;strokeColor=#FF0000;fillColor=#FF0000;fillStyle=solid;" parent="zpsw3IufiYo-VEUWoXs3-0" vertex="1">
                    <mxGeometry x="1013" y="-94" width="55" height="70" as="geometry"/>
                </mxCell>
                <mxCell id="101" value="&lt;font style=&quot;font-size: 30px;&quot; color=&quot;#ff0000&quot;&gt;0/0&lt;/font&gt;" style="text;html=1;align=center;verticalAlign=middle;resizable=0;points=[];autosize=1;strokeColor=none;fillColor=none;fontSize=30;fontFamily=Comic Sans MS;fontColor=#000000;fontStyle=1" parent="zpsw3IufiYo-VEUWoXs3-0" vertex="1">
                    <mxGeometry x="2220" y="-37" width="90" height="45" as="geometry"/>
                </mxCell>
                <mxCell id="102" value="" style="endArrow=classic;html=1;dashed=1;sketch=0;hachureGap=4;jiggle=2;curveFitting=1;strokeColor=#FF0000;strokeWidth=5;fontFamily=Architects Daughter;fontSource=https%3A%2F%2Ffonts.googleapis.com%2Fcss%3Ffamily%3DArchitects%2BDaughter;fontSize=3;fontColor=#FF0000;curved=1;endFill=1;" parent="zpsw3IufiYo-VEUWoXs3-0" edge="1">
                    <mxGeometry width="50" height="50" relative="1" as="geometry">
                        <mxPoint x="2340" y="-52" as="sourcePoint"/>
                        <mxPoint x="2160" y="-52" as="targetPoint"/>
                    </mxGeometry>
                </mxCell>
                <mxCell id="103" value="" style="verticalLabelPosition=bottom;verticalAlign=top;html=1;shape=mxgraph.basic.x;sketch=1;hachureGap=4;jiggle=2;curveFitting=1;fontFamily=Architects Daughter;fontSource=https%3A%2F%2Ffonts.googleapis.com%2Fcss%3Ffamily%3DArchitects%2BDaughter;fontSize=30;fontColor=#009900;strokeColor=#FF0000;fillColor=#FF0000;fillStyle=solid;" parent="zpsw3IufiYo-VEUWoXs3-0" vertex="1">
                    <mxGeometry x="2055" y="-100" width="55" height="70" as="geometry"/>
                </mxCell>
                <mxCell id="104" value="&lt;font style=&quot;font-size: 30px;&quot; color=&quot;#ff0000&quot;&gt;0/0&lt;/font&gt;" style="text;html=1;align=center;verticalAlign=middle;resizable=0;points=[];autosize=1;strokeColor=none;fillColor=none;fontSize=30;fontFamily=Comic Sans MS;fontColor=#000000;fontStyle=1" parent="zpsw3IufiYo-VEUWoXs3-0" vertex="1">
                    <mxGeometry x="3435" y="-2.5" width="90" height="45" as="geometry"/>
                </mxCell>
                <mxCell id="106" value="" style="endArrow=classic;html=1;dashed=1;sketch=0;hachureGap=4;jiggle=2;curveFitting=1;strokeColor=#FF0000;strokeWidth=5;fontFamily=Architects Daughter;fontSource=https%3A%2F%2Ffonts.googleapis.com%2Fcss%3Ffamily%3DArchitects%2BDaughter;fontSize=3;fontColor=#FF0000;curved=1;endFill=1;" parent="zpsw3IufiYo-VEUWoXs3-0" edge="1">
                    <mxGeometry width="50" height="50" relative="1" as="geometry">
                        <mxPoint x="3540" y="-17.5" as="sourcePoint"/>
                        <mxPoint x="3360" y="-17.5" as="targetPoint"/>
                    </mxGeometry>
                </mxCell>
                <mxCell id="107" value="&lt;font style=&quot;font-size: 30px;&quot; color=&quot;#ff0000&quot;&gt;0/0&lt;/font&gt;" style="text;html=1;align=center;verticalAlign=middle;resizable=0;points=[];autosize=1;strokeColor=none;fillColor=none;fontSize=30;fontFamily=Comic Sans MS;fontColor=#000000;fontStyle=1" parent="zpsw3IufiYo-VEUWoXs3-0" vertex="1">
                    <mxGeometry x="3225" y="381" width="90" height="45" as="geometry"/>
                </mxCell>
                <mxCell id="108" value="" style="endArrow=classic;html=1;dashed=1;sketch=0;hachureGap=4;jiggle=2;curveFitting=1;strokeColor=#FF0000;strokeWidth=5;fontFamily=Architects Daughter;fontSource=https%3A%2F%2Ffonts.googleapis.com%2Fcss%3Ffamily%3DArchitects%2BDaughter;fontSize=3;fontColor=#FF0000;curved=1;endFill=1;" parent="zpsw3IufiYo-VEUWoXs3-0" edge="1">
                    <mxGeometry width="50" height="50" relative="1" as="geometry">
                        <mxPoint x="3161" y="314" as="sourcePoint"/>
                        <mxPoint x="3251" y="374" as="targetPoint"/>
                    </mxGeometry>
                </mxCell>
                <mxCell id="110" style="edgeStyle=none;curved=1;sketch=0;hachureGap=4;jiggle=2;curveFitting=1;html=1;exitX=0.378;exitY=0.924;exitDx=0;exitDy=0;entryX=0.5;entryY=0;entryDx=0;entryDy=0;dashed=1;strokeColor=#CC00CC;strokeWidth=5;fontFamily=Architects Daughter;fontSource=https%3A%2F%2Ffonts.googleapis.com%2Fcss%3Ffamily%3DArchitects%2BDaughter;fontSize=30;fontColor=#009900;startArrow=classic;startFill=1;endArrow=none;endFill=0;exitPerimeter=0;" parent="zpsw3IufiYo-VEUWoXs3-0" source="80" target="Gj4-7rek51OEj5r49d8h-21" edge="1">
                    <mxGeometry relative="1" as="geometry">
                        <Array as="points">
                            <mxPoint x="3795" y="135"/>
                            <mxPoint x="2805" y="45"/>
                        </Array>
                    </mxGeometry>
                </mxCell>
                <mxCell id="112" style="edgeStyle=none;curved=1;sketch=0;hachureGap=4;jiggle=2;curveFitting=1;html=1;exitX=0.75;exitY=1;exitDx=0;exitDy=0;entryX=0.098;entryY=0.693;entryDx=0;entryDy=0;entryPerimeter=0;dashed=1;strokeColor=#CC00CC;strokeWidth=5;fontFamily=Architects Daughter;fontSource=https%3A%2F%2Ffonts.googleapis.com%2Fcss%3Ffamily%3DArchitects%2BDaughter;fontSize=30;fontColor=#009900;startArrow=classic;startFill=1;endArrow=none;endFill=0;" parent="zpsw3IufiYo-VEUWoXs3-0" source="Gj4-7rek51OEj5r49d8h-44" target="80" edge="1">
                    <mxGeometry relative="1" as="geometry">
                        <Array as="points">
                            <mxPoint x="2775" y="75"/>
                            <mxPoint x="3435" y="60"/>
                        </Array>
                    </mxGeometry>
                </mxCell>
                <mxCell id="113" value="East-West-Traffic" parent="0Zcb1wvKVoteUL0pYanl-0" visible="0"/>
                <mxCell id="35" value="TODO: Scenario-5:NVA-Indirect-Spokes" style="" parent="0Zcb1wvKVoteUL0pYanl-0" visible="0"/>
                <mxCell id="28" value="TODO:Scenario-6: NVA Direct- Custom Route" parent="0Zcb1wvKVoteUL0pYanl-0" visible="0"/>
                <mxCell id="26" value="AzFW-Custom" parent="0Zcb1wvKVoteUL0pYanl-0" visible="0"/>
                <mxCell id="114" value="&lt;font style=&quot;font-size: 45px;&quot;&gt;&lt;b&gt;Scenario-4&amp;nbsp; BGP Peering with vHUB router&lt;br&gt;&lt;/b&gt;&lt;/font&gt;" style="text;html=1;align=left;verticalAlign=middle;resizable=0;points=[];autosize=1;strokeColor=none;fillColor=none;fontSize=20;fontFamily=Architects Daughter;sketch=1;hachureGap=4;jiggle=2;curveFitting=1;fontSource=https%3A%2F%2Ffonts.googleapis.com%2Fcss%3Ffamily%3DArchitects%2BDaughter;" parent="26" vertex="1">
                    <mxGeometry x="1185" y="1170" width="945" height="75" as="geometry"/>
                </mxCell>
            </root>
        </mxGraphModel>
    </diagram>
</mxfile>